<svg xmlns="http://www.w3.org/2000/svg" fill="currentColor" viewBox="0 0 134 134" stroke-width="1">
                      <path fill-rule="evenodd" d="M100.66 65.26C100.7 65.45 100.74 65.64 100.77 65.84C100.8 66.03 100.83 66.22 100.85 66.42C100.87 66.61 100.89 66.81 100.9 67C100.91 67.2 100.92 67.39 100.92 67.59C100.92 73.11 97.07 77.59 92.67 77.59C92.55 77.58 92.42 77.58 92.3 77.56C92.17 77.55 92.05 77.54 91.92 77.52C91.8 77.5 91.68 77.47 91.55 77.45C91.43 77.42 91.31 77.39 91.19 77.36C90.75 78.42 90.24 79.45 89.65 80.44C89.07 81.42 88.41 82.37 87.7 83.26C86.98 84.16 86.19 85 85.36 85.78C84.52 86.56 83.62 87.28 82.68 87.94L82.68 95.55C82.68 95.81 82.63 96.07 82.53 96.32C82.43 96.56 82.28 96.78 82.09 96.96C81.91 97.15 81.69 97.3 81.45 97.4C81.2 97.5 80.94 97.55 80.68 97.55L72.68 97.55C72.42 97.55 72.16 97.5 71.91 97.4C71.67 97.3 71.45 97.15 71.27 96.96C71.08 96.78 70.93 96.56 70.83 96.32C70.73 96.07 70.68 95.81 70.68 95.55L70.68 92.84C69.7 93.07 68.7 93.25 67.7 93.36C66.7 93.48 65.69 93.54 64.68 93.54C63.67 93.54 62.66 93.48 61.66 93.36C60.66 93.25 59.66 93.07 58.68 92.84L58.68 95.65C58.68 95.91 58.63 96.17 58.53 96.42C58.43 96.66 58.28 96.88 58.09 97.06C57.91 97.25 57.69 97.4 57.45 97.5C57.2 97.6 56.94 97.65 56.68 97.65L48.68 97.65C48.42 97.65 48.16 97.6 47.91 97.5C47.67 97.4 47.45 97.25 47.27 97.06C47.08 96.88 46.93 96.66 46.83 96.42C46.73 96.17 46.68 95.91 46.68 95.65L46.68 88.65C46.1 88.17 45.55 87.66 45.02 87.12C44.49 86.59 43.99 86.03 43.52 85.44C43.05 84.85 42.61 84.24 42.2 83.61C41.8 82.97 41.42 82.32 41.08 81.65C40.02 81.65 39.47 81.65 38.68 81.65C37.89 81.65 37.11 81.49 36.38 81.19C35.66 80.89 34.99 80.45 34.44 79.89C33.88 79.34 33.44 78.67 33.14 77.95C32.84 77.22 32.68 76.44 32.68 75.65L32.68 71.65C32.68 70.86 32.84 70.08 33.14 69.35C33.44 68.63 33.88 67.96 34.44 67.41C34.99 66.85 35.66 66.41 36.38 66.11C37.11 65.81 37.89 65.65 38.68 65.65L39.59 65.65C39.75 65.09 39.94 64.53 40.14 63.98C40.35 63.43 40.58 62.89 40.83 62.36C41.08 61.83 41.35 61.31 41.65 60.81C41.94 60.3 42.26 59.8 42.59 59.32L37.21 52.96C37.05 52.77 36.93 52.55 36.85 52.32C36.77 52.08 36.73 51.84 36.74 51.59C36.75 51.34 36.81 51.1 36.91 50.87C37 50.64 37.15 50.44 37.32 50.26C38.04 49.53 38.88 48.93 39.79 48.46C40.7 47.99 41.69 47.67 42.7 47.51C43.71 47.34 44.74 47.34 45.76 47.49C46.77 47.65 47.75 47.96 48.67 48.42L50.17 49.16C50.4 49.05 50.62 48.95 50.85 48.84C51.08 48.74 51.31 48.64 51.54 48.54C51.77 48.45 52 48.35 52.24 48.26C52.47 48.17 52.7 48.08 52.94 48C53.07 48.68 53.27 49.34 53.51 49.98C53.76 50.62 54.06 51.24 54.42 51.83C54.77 52.42 55.18 52.98 55.63 53.5C56.08 54.02 56.58 54.5 57.11 54.94C56.82 55.04 56.52 55.07 56.24 55.18C55.7 55.34 55.26 55.71 55.01 56.21C54.76 56.71 54.73 57.29 54.93 57.81C55.12 58.33 55.53 58.75 56.05 58.95C56.56 59.16 57.15 59.15 57.65 58.91C58.79 58.49 59.97 58.18 61.17 57.97C62.37 57.77 63.58 57.66 64.8 57.67C66.01 57.68 67.23 57.79 68.42 58.01C69.62 58.23 70.79 58.55 71.93 58.98C72.43 59.22 73.01 59.24 73.53 59.03C74.04 58.83 74.45 58.41 74.65 57.9C74.85 57.38 74.83 56.8 74.59 56.3C74.34 55.8 73.9 55.42 73.37 55.26C73 55.11 72.59 55.05 72.21 54.93C72.75 54.49 73.25 54.01 73.71 53.48C74.16 52.96 74.57 52.39 74.93 51.8C75.29 51.2 75.6 50.58 75.85 49.93C76.1 49.28 76.29 48.61 76.43 47.93C86.17 51.83 92.63 60.29 92.63 69.6C92.63 69.93 92.62 70.25 92.6 70.58C92.58 70.91 92.55 71.23 92.52 71.56C92.49 71.89 92.44 72.21 92.39 72.53C92.34 72.86 92.29 73.18 92.22 73.5C94.41 73.77 96.92 71.04 96.92 67.6C96.92 67.47 96.91 67.33 96.9 67.2C96.9 67.07 96.88 66.94 96.87 66.81C96.85 66.67 96.84 66.54 96.81 66.41C96.79 66.28 96.77 66.15 96.74 66.02C96.6 65.49 96.69 64.92 96.99 64.45C97.28 63.99 97.76 63.67 98.3 63.56C98.84 63.46 99.4 63.58 99.85 63.9C100.29 64.22 100.59 64.71 100.66 65.26ZM48.69 69.64C48.95 69.64 49.21 69.58 49.45 69.48C49.69 69.38 49.9 69.23 50.08 69.04C50.27 68.86 50.41 68.64 50.51 68.4C50.61 68.16 50.66 67.9 50.66 67.64C50.66 66.83 50.17 66.1 49.43 65.79C48.68 65.48 47.82 65.65 47.25 66.23C46.67 66.8 46.5 67.66 46.81 68.41C47.12 69.15 47.85 69.64 48.66 69.64L48.69 69.64Z"></path>
                      <path fill-rule="evenodd" d="M65.08 36.08C66.33 36.08 67.57 36.33 68.72 36.81C69.88 37.29 70.93 37.99 71.81 38.87C72.7 39.75 73.4 40.8 73.88 41.96C74.36 43.11 74.61 44.35 74.61 45.6C74.61 49.46 72.29 52.93 68.73 54.41C65.17 55.89 61.07 55.08 58.34 52.35C55.62 49.63 54.8 45.53 56.27 41.97C57.75 38.4 61.22 36.08 65.08 36.08ZM58 49.7C58.23 49.82 58.46 49.93 58.71 50.03C58.95 50.12 59.2 50.19 59.45 50.25C59.71 50.31 59.96 50.35 60.22 50.38C60.48 50.4 60.74 50.41 61 50.4C61.21 50.41 61.42 50.4 61.63 50.37C61.84 50.34 62.05 50.3 62.25 50.23C62.45 50.17 62.64 50.08 62.83 49.98C63.02 49.89 63.19 49.77 63.36 49.64C63.52 49.52 63.66 49.39 63.79 49.24C63.91 49.09 64.03 48.93 64.12 48.76C64.21 48.58 64.29 48.4 64.35 48.22C64.4 48.03 64.44 47.84 64.46 47.64C64.61 46.39 63.87 45.46 62.25 44.85C62.16 44.82 62.07 44.79 61.99 44.75C61.9 44.72 61.82 44.68 61.73 44.64C61.65 44.6 61.57 44.55 61.49 44.51C61.41 44.46 61.33 44.41 61.25 44.36C61.21 44.32 61.17 44.28 61.13 44.24C61.1 44.19 61.07 44.14 61.05 44.09C61.03 44.04 61.01 43.99 61 43.93C60.99 43.87 60.99 43.82 61 43.76C61 43.25 61.37 43 62 43C62.1 43 62.21 43.01 62.31 43.02C62.41 43.04 62.51 43.05 62.62 43.07C62.72 43.09 62.82 43.12 62.92 43.15C63.02 43.18 63.11 43.21 63.21 43.25C63.29 43.28 63.37 43.31 63.45 43.34C63.53 43.37 63.61 43.41 63.69 43.44C63.76 43.48 63.84 43.52 63.91 43.57C63.99 43.61 64.06 43.66 64.13 43.71L64.71 41.93C64.52 41.8 64.32 41.68 64.11 41.58C63.9 41.49 63.69 41.4 63.47 41.34C63.25 41.28 63.02 41.23 62.79 41.2C62.56 41.18 62.33 41.17 62.1 41.18C61.9 41.18 61.7 41.19 61.51 41.21C61.31 41.24 61.12 41.28 60.93 41.34C60.74 41.4 60.55 41.47 60.37 41.55C60.2 41.64 60.02 41.74 59.86 41.85C59.7 41.96 59.55 42.09 59.42 42.23C59.29 42.37 59.18 42.52 59.08 42.69C58.98 42.86 58.9 43.03 58.84 43.22C58.79 43.4 58.75 43.59 58.73 43.78C58.72 43.85 58.72 43.91 58.71 43.98C58.71 44.04 58.71 44.11 58.71 44.17C58.71 44.24 58.71 44.31 58.71 44.37C58.72 44.44 58.72 44.5 58.73 44.57C58.74 44.63 58.75 44.68 58.77 44.73C58.78 44.79 58.8 44.84 58.82 44.89C58.84 44.94 58.86 45 58.89 45.05C58.91 45.09 58.94 45.14 58.97 45.19C59 45.23 59.03 45.27 59.05 45.31C59.08 45.35 59.11 45.39 59.14 45.43C59.17 45.46 59.2 45.5 59.23 45.54C59.27 45.58 59.3 45.61 59.33 45.65C59.37 45.69 59.41 45.73 59.45 45.76C59.5 45.8 59.54 45.83 59.59 45.86C59.63 45.89 59.68 45.92 59.73 45.95C59.78 45.97 59.83 46 59.88 46.02L60.48 46.32L61.18 46.6C61.26 46.63 61.33 46.65 61.4 46.69C61.48 46.72 61.55 46.76 61.62 46.8C61.69 46.84 61.76 46.88 61.82 46.93C61.89 46.98 61.95 47.03 62.01 47.08C62.05 47.13 62.09 47.18 62.12 47.24C62.15 47.29 62.17 47.35 62.19 47.41C62.2 47.47 62.21 47.54 62.21 47.6C62.21 47.66 62.2 47.73 62.19 47.79C62.18 47.85 62.17 47.91 62.15 47.97C62.13 48.03 62.11 48.09 62.08 48.14C62.05 48.19 62.01 48.25 61.97 48.29C61.93 48.34 61.89 48.38 61.84 48.42C61.79 48.46 61.73 48.5 61.67 48.53C61.6 48.56 61.54 48.59 61.48 48.61C61.41 48.63 61.34 48.64 61.28 48.65C61.21 48.66 61.14 48.66 61.07 48.66C60.84 48.66 60.62 48.64 60.4 48.6C60.17 48.56 59.95 48.51 59.74 48.45C59.52 48.38 59.31 48.3 59.11 48.2C58.91 48.11 58.71 47.99 58.52 47.87L58 49.7ZM71.12 40.65L69.43 40.1L64.49 51.35L66.21 51.87L71.12 40.65Z"></path>
                    </svg>