<svg xmlns="http://www.w3.org/2000/svg" fill="currentColor" viewBox="0 0 134 134" stroke-width="1">
                      <path d="M93.62 79.71L97 76.35C97.45 75.87 97.69 75.23 97.68 74.57C97.67 73.91 97.41 73.29 96.94 72.82C96.47 72.35 95.85 72.09 95.19 72.08C94.53 72.07 93.89 72.31 93.41 72.76L90 76.12L86.64 72.76C86.16 72.28 85.52 72.02 84.84 72.02C84.17 72.01 83.52 72.28 83.05 72.76C82.57 73.23 82.3 73.88 82.3 74.55C82.3 75.23 82.57 75.87 83.04 76.35L86.41 79.71L83.04 83.07C82.61 83.56 82.38 84.19 82.4 84.84C82.42 85.49 82.68 86.11 83.14 86.57C83.6 87.03 84.22 87.29 84.87 87.31C85.52 87.33 86.15 87.1 86.64 86.67L90 83.3L93.36 86.67C93.85 87.14 94.49 87.41 95.17 87.41C95.84 87.41 96.49 87.15 96.97 86.68C97.45 86.2 97.72 85.56 97.72 84.88C97.72 84.21 97.46 83.56 96.99 83.08L93.62 79.71Z"></path>
                      <path d="M92.57 54.56C92.57 53.46 92.36 52.38 91.94 51.37C91.52 50.35 90.9 49.43 90.13 48.66C89.36 47.89 88.44 47.27 87.42 46.85C86.41 46.43 85.33 46.22 84.23 46.22L44.23 46.22C43.13 46.22 42.05 46.43 41.04 46.85C40.02 47.27 39.1 47.89 38.33 48.66C37.56 49.43 36.94 50.35 36.52 51.37C36.1 52.38 35.89 53.46 35.89 54.56C35.89 54.65 35.91 54.74 35.94 54.82C35.97 54.9 36.02 54.98 36.09 55.04C36.15 55.11 36.23 55.16 36.31 55.19C36.39 55.22 36.48 55.24 36.57 55.24L91.87 55.24C91.96 55.24 92.05 55.23 92.14 55.19C92.22 55.16 92.3 55.11 92.36 55.05C92.43 54.98 92.48 54.91 92.52 54.82C92.55 54.74 92.57 54.65 92.57 54.56Z"></path>
                      <path d="M92.57 61L92.57 64.1C92.57 64.3 92.53 64.5 92.45 64.69C92.37 64.87 92.25 65.04 92.1 65.17C91.96 65.31 91.78 65.42 91.59 65.48C91.4 65.55 91.2 65.58 91 65.56C88.98 65.42 86.95 65.72 85.05 66.43C83.15 67.14 81.43 68.26 80 69.69C78.56 71.12 77.45 72.85 76.74 74.75C76.03 76.65 75.74 78.68 75.88 80.7C75.89 80.9 75.86 81.1 75.8 81.28C75.73 81.47 75.62 81.64 75.49 81.79C75.35 81.93 75.19 82.05 75.01 82.13C74.83 82.21 74.63 82.25 74.43 82.25L44.24 82.25C43.14 82.25 42.06 82.03 41.05 81.62C40.04 81.2 39.12 80.58 38.34 79.81C37.57 79.03 36.95 78.11 36.53 77.1C36.12 76.09 35.9 75.01 35.9 73.91L35.9 61C35.9 60.91 35.92 60.82 35.95 60.74C35.98 60.65 36.03 60.58 36.1 60.51C36.16 60.45 36.23 60.4 36.32 60.36C36.4 60.33 36.49 60.31 36.58 60.31L91.88 60.31C91.97 60.31 92.06 60.33 92.14 60.36C92.23 60.4 92.3 60.45 92.37 60.51C92.43 60.58 92.48 60.65 92.52 60.74C92.55 60.82 92.57 60.91 92.57 61Z"></path>
                    </svg>