<svg xmlns="http://www.w3.org/2000/svg" fill="currentColor" viewBox="0 0 134 134" stroke-width="1">
  <path fill="currentColor" d="M72.86 35.91C77.1 35.91 80.93 38.46 82.56 42.38C84.19 46.3 83.29 50.81 80.29 53.81C77.29 56.82 72.78 57.72 68.86 56.09C64.94 54.47 62.38 50.64 62.38 46.4C62.38 45.02 62.65 43.66 63.18 42.39C63.7 41.12 64.48 39.96 65.45 38.99C66.42 38.01 67.58 37.24 68.85 36.71C70.12 36.18 71.48 35.91 72.86 35.91L72.86 35.91Z"></path>
  <path fill="currentColor" d="M42.52 83.36L42.52 74.54C42.55 74.23 42.45 73.92 42.24 73.69C42.03 73.46 41.73 73.32 41.42 73.32C41.1 73.32 40.8 73.46 40.59 73.69C40.38 73.92 40.28 74.23 40.31 74.54L40.31 83.36L37 83.36C36.86 83.36 36.71 83.33 36.58 83.28C36.45 83.22 36.32 83.14 36.22 83.04C36.12 82.94 36.04 82.81 35.98 82.68C35.93 82.55 35.9 82.4 35.9 82.26L35.9 74.54C35.9 73.38 36.13 72.23 36.57 71.16C37.01 70.09 37.66 69.12 38.48 68.3C39.3 67.48 40.27 66.83 41.34 66.38C42.41 65.94 43.56 65.71 44.72 65.71L52.45 65.71C52.62 65.71 52.8 65.71 52.97 65.72C53.15 65.74 53.32 65.75 53.49 65.77C53.67 65.79 53.84 65.82 54.01 65.85C54.18 65.88 54.35 65.92 54.52 65.96C54.01 66.55 53.56 67.19 53.16 67.86C52.77 68.53 52.43 69.23 52.16 69.97C51.89 70.7 51.69 71.45 51.55 72.22C51.41 72.98 51.34 73.76 51.34 74.54L51.34 83.36L42.52 83.36ZM62.18 87.78C62.21 87.69 62.24 87.6 62.27 87.51C62.29 87.42 62.31 87.33 62.33 87.23C62.35 87.14 62.36 87.05 62.37 86.95C62.38 86.86 62.38 86.76 62.38 86.67L62.38 73.43C62.35 73.16 62.23 72.9 62.02 72.71C61.82 72.53 61.55 72.43 61.28 72.43C61 72.43 60.73 72.53 60.53 72.71C60.32 72.9 60.2 73.16 60.17 73.43L60.17 86.67C60.17 86.81 60.14 86.96 60.09 87.09C60.03 87.23 59.95 87.35 59.85 87.45C59.75 87.55 59.63 87.64 59.49 87.69C59.36 87.75 59.21 87.78 59.07 87.78L54.66 87.78C54.51 87.78 54.37 87.75 54.24 87.7C54.1 87.64 53.98 87.56 53.88 87.45C53.77 87.35 53.69 87.23 53.63 87.09C53.58 86.96 53.55 86.82 53.55 86.67L53.55 74.54C53.55 73.1 53.83 71.67 54.39 70.33C54.94 69 55.75 67.78 56.77 66.76C57.79 65.74 59.01 64.93 60.34 64.38C61.68 63.82 63.11 63.54 64.55 63.54L73.61 63.54C73.6 63.55 73.59 63.56 73.58 63.57C73.57 63.57 73.56 63.58 73.55 63.59C73.54 63.6 73.53 63.61 73.52 63.62C73.51 63.63 73.5 63.64 73.49 63.65C72.32 64.82 71.35 66.17 70.61 67.64C69.87 69.12 69.37 70.7 69.13 72.34C68.9 73.97 68.92 75.63 69.21 77.26C69.49 78.89 70.04 80.46 70.82 81.91L65 87.78L62.18 87.78ZM65.53 97C65.3 97.21 65.04 97.38 64.75 97.49C64.47 97.61 64.16 97.67 63.85 97.67C63.54 97.67 63.23 97.61 62.95 97.49C62.66 97.38 62.4 97.21 62.17 97C61.95 96.78 61.77 96.52 61.65 96.23C61.53 95.94 61.47 95.64 61.47 95.33C61.47 95.01 61.53 94.71 61.65 94.42C61.77 94.13 61.95 93.87 62.17 93.65L72.09 83.73C72.2 83.88 72.31 84.03 72.42 84.17C72.54 84.32 72.66 84.46 72.77 84.6C72.89 84.74 73.02 84.88 73.14 85.02C73.26 85.15 73.39 85.29 73.52 85.42C73.68 85.57 73.83 85.72 73.99 85.86C74.16 86 74.32 86.14 74.49 86.28C74.65 86.41 74.82 86.54 75 86.67C75.17 86.8 75.34 86.93 75.52 87.05L65.53 97ZM93.81 83.9C89.35 88.3 82.4 88.94 77.21 85.43C72.02 81.92 70.03 75.23 72.45 69.45C74.87 63.68 81.03 60.41 87.17 61.64C93.32 62.88 97.73 68.27 97.73 74.54C97.73 75.41 97.64 76.27 97.47 77.13C97.29 77.98 97.04 78.81 96.7 79.61C96.37 80.41 95.95 81.18 95.47 81.9C94.98 82.62 94.43 83.29 93.81 83.9L93.81 83.9Z"></path>
  <path fill="currentColor" d="M48.59 44.74C51.49 44.74 54.11 46.49 55.22 49.17C56.34 51.86 55.72 54.95 53.66 57C51.61 59.05 48.52 59.67 45.84 58.55C43.15 57.44 41.41 54.81 41.41 51.91C41.41 50.97 41.6 50.03 41.96 49.16C42.32 48.29 42.85 47.5 43.51 46.84C44.18 46.17 44.97 45.64 45.84 45.28C46.71 44.92 47.65 44.74 48.59 44.74L48.59 44.74Z"></path>
</svg>