<svg xmlns="http://www.w3.org/2000/svg" fill="currentColor" viewBox="0 0 134 134" stroke-width="1">
                      <path d="M77.2,70.33A11.25,11.25,0,1,0,88.46,81.58,11.26,11.26,0,0,0,77.2,70.33ZM84.69,79l-9.14,9.14a1.53,1.53,0,0,1-1.09.45,1.55,1.55,0,0,1-1.09-.45L69.71,84.5a1.55,1.55,0,0,1,2.19-2.18l2.56,2.56,8.05-8A1.54,1.54,0,0,1,84.69,79Z"></path>
                      <path d="M79.78,45.94c1,0,1.89,0,2.84,0h2.95c.13,0,.3,0,.37-.08s-.08-.27-.18-.37l-6.12-6c-.09-.09-.19-.23-.33-.19s-.15.25-.15.39c0,1.89,0,3.79,0,5.68C79.15,45.8,79.35,46,79.78,45.94Z"></path>
                      <path d="M77.2,67.24a14.26,14.26,0,0,1,10.29,4.38V50.24c0-1,0-1-1-1H77.89c-1.41,0-2-.6-2-2,0-3.19,0-6.37,0-9.55H46.41a2,2,0,0,0-1.23,2c0,.23,0,.46,0,.69V88.71c0,1.66.6,2.26,2.26,2.26h19A14.32,14.32,0,0,1,77.2,67.24Z"></path>
                    </svg>