<svg xmlns="http://www.w3.org/2000/svg" fill="currentColor" viewBox="0 0 134 134" stroke-width="1">
    <path d="M57 50.14L57 65.85L49.41 73.45C49.11 73.74 48.91 74.11 48.83 74.52C48.75 74.93 48.79 75.35 48.95 75.74C49.11 76.12 49.39 76.45 49.73 76.67C50.08 76.9 50.49 77.01 50.91 77C51.05 77 51.18 76.99 51.31 76.96C51.45 76.94 51.58 76.9 51.7 76.85C51.83 76.79 51.95 76.73 52.06 76.65C52.17 76.58 52.28 76.49 52.37 76.39L60.57 68.19C60.67 68.1 60.76 67.99 60.83 67.88C60.91 67.77 60.97 67.65 61.03 67.52C61.08 67.4 61.12 67.27 61.14 67.13C61.17 67 61.18 66.87 61.18 66.73L61.18 50.14C61.14 49.61 60.91 49.12 60.52 48.76C60.14 48.4 59.63 48.2 59.1 48.2C58.58 48.2 58.07 48.4 57.69 48.76C57.3 49.12 57.07 49.61 57.03 50.14L57 50.14Z"></path>
    <path d="M83.54 44.66C83.27 44.66 83 44.71 82.75 44.82C82.5 44.92 82.27 45.07 82.08 45.27C81.88 45.46 81.73 45.69 81.63 45.94C81.52 46.19 81.47 46.46 81.47 46.73L81.47 52.48C76.44 44.57 67.61 39.91 58.25 40.21C48.88 40.52 40.37 45.74 35.86 53.95C31.35 62.17 31.52 72.15 36.29 80.22C41.06 88.28 49.74 93.22 59.11 93.22L59.21 93.22C59.96 93.22 60.71 93.22 61.45 93.12C62.02 93.1 62.55 92.85 62.93 92.42C63.3 92 63.49 91.44 63.44 90.88C63.39 90.31 63.11 89.79 62.67 89.44C62.23 89.08 61.66 88.92 61.1 89C60.48 89 59.84 89.07 59.21 89.07L59.11 89.07C51.14 89.07 43.77 84.83 39.76 77.94C35.75 71.05 35.72 62.54 39.67 55.62C43.62 48.69 50.96 44.39 58.93 44.33C66.9 44.27 74.3 48.46 78.36 55.32L72.66 55.32C72.11 55.32 71.58 55.54 71.2 55.93C70.81 56.31 70.59 56.84 70.59 57.39C70.59 57.94 70.81 58.47 71.2 58.85C71.58 59.24 72.11 59.46 72.66 59.46L79 59.46C79.3 59.46 79.6 59.44 79.9 59.39C80.2 59.35 80.5 59.29 80.79 59.2C81.08 59.12 81.37 59.01 81.64 58.89C81.92 58.76 82.18 58.62 82.44 58.46C82.46 58.45 82.47 58.44 82.49 58.44C82.51 58.43 82.52 58.42 82.54 58.41C82.56 58.4 82.57 58.39 82.59 58.38C82.6 58.36 82.62 58.35 82.63 58.34C83.09 58.04 83.51 57.69 83.88 57.28C84.25 56.88 84.57 56.44 84.83 55.95C85.09 55.47 85.29 54.96 85.43 54.43C85.56 53.9 85.63 53.36 85.63 52.81L85.63 46.73C85.63 46.46 85.58 46.19 85.47 45.93C85.37 45.68 85.21 45.45 85.02 45.26C84.82 45.07 84.59 44.91 84.34 44.81C84.08 44.71 83.81 44.66 83.54 44.66L83.54 44.66Z"></path>
    <path d="M81.52 68.08C81.44 68.12 81.38 68.19 81.34 68.27C81.29 68.34 81.27 68.43 81.27 68.52C81.27 68.61 81.29 68.7 81.34 68.77C81.38 68.85 81.44 68.92 81.52 68.96C81.81 69.12 82.08 69.3 82.35 69.49C82.61 69.68 82.86 69.89 83.1 70.11C83.34 70.33 83.57 70.57 83.78 70.82C83.99 71.07 84.19 71.33 84.37 71.6C84.41 71.66 84.46 71.72 84.52 71.77C84.58 71.82 84.65 71.86 84.72 71.89C84.79 71.92 84.86 71.94 84.94 71.94C85.02 71.95 85.09 71.95 85.17 71.93C85.69 71.82 86.21 71.69 86.72 71.56C87.24 71.43 87.75 71.29 88.26 71.14C88.77 70.99 89.28 70.83 89.79 70.66C90.29 70.49 90.79 70.31 91.29 70.12C91.37 70.09 91.44 70.04 91.49 69.98C91.55 69.91 91.58 69.84 91.6 69.75C91.62 69.67 91.62 69.59 91.59 69.5C91.57 69.42 91.53 69.35 91.47 69.29C90.83 68.65 90.09 68.12 89.27 67.72C88.46 67.32 87.58 67.06 86.68 66.95C85.78 66.84 84.87 66.89 83.98 67.08C83.09 67.27 82.24 67.61 81.47 68.08L81.52 68.08Z"></path>
    <path d="M72.72 72.36C72.66 72.44 72.63 72.53 72.62 72.62C72.62 72.71 72.64 72.81 72.68 72.89C72.72 72.97 72.78 73.04 72.86 73.09C72.94 73.14 73.04 73.17 73.13 73.17C73.84 73.17 74.54 73.16 75.25 73.14C75.95 73.12 76.66 73.08 77.36 73.03C78.06 72.98 78.77 72.92 79.47 72.85C80.17 72.78 80.87 72.69 81.57 72.59C81.66 72.58 81.75 72.53 81.83 72.47C81.9 72.41 81.95 72.33 81.98 72.24C82.01 72.15 82.02 72.05 82 71.96C81.97 71.86 81.93 71.78 81.86 71.71C81.24 71.1 80.5 70.64 79.69 70.34C78.87 70.04 78.01 69.92 77.14 69.98C76.28 70.04 75.44 70.28 74.68 70.69C73.91 71.1 73.25 71.67 72.72 72.36L72.72 72.36Z"></path>
    <path fill-rule="evenodd" d="M100.91 86.16C100.91 86.78 100.25 87.02 99.63 87.41C96.27 89.51 91.52 90.95 86.38 92.15C85.14 92.37 83.9 92.56 82.66 92.72C81.41 92.89 80.16 93.02 78.91 93.13C77.66 93.23 76.4 93.31 75.15 93.36C73.89 93.41 72.64 93.43 71.38 93.42C71.26 93.42 71.14 93.4 71.02 93.36C70.91 93.31 70.8 93.25 70.71 93.17C70.62 93.09 70.54 92.99 70.49 92.88C70.43 92.77 70.39 92.65 70.38 92.53L68.38 76.23C68.35 76.08 68.36 75.92 68.41 75.77C68.45 75.62 68.53 75.49 68.64 75.38C68.75 75.26 68.88 75.18 69.02 75.12C69.17 75.07 69.33 75.05 69.48 75.07C70.31 75.13 71.15 75.16 71.98 75.18C72.81 75.2 73.65 75.21 74.48 75.19C75.32 75.18 76.15 75.15 76.98 75.1C77.82 75.05 78.65 74.98 79.48 74.9C84.59 74.39 91.85 73 97.4 69.13C97.54 69.02 97.71 68.95 97.89 68.93C98.07 68.91 98.25 68.94 98.41 69.01C98.57 69.09 98.71 69.2 98.82 69.35C98.92 69.49 98.98 69.66 99 69.84L100.91 86.16ZM86.16 85.84C86.16 85.74 86.17 85.64 86.17 85.54C86.16 85.44 86.16 85.34 86.15 85.24C86.14 85.14 86.12 85.04 86.1 84.94C86.09 84.83 86.06 84.72 86.04 84.62C86.01 84.51 85.97 84.41 85.93 84.31C85.89 84.21 85.84 84.11 85.79 84.01C85.74 83.92 85.68 83.83 85.61 83.74C85.55 83.67 85.49 83.6 85.43 83.53C85.36 83.46 85.3 83.4 85.23 83.34C85.16 83.28 85.08 83.23 85.01 83.17C84.93 83.12 84.85 83.07 84.77 83.03C84.69 82.99 84.61 82.95 84.53 82.91C84.45 82.87 84.37 82.84 84.28 82.81C84.2 82.78 84.11 82.75 84.03 82.72C83.94 82.69 83.86 82.67 83.77 82.65L82.77 82.41C82.7 82.39 82.64 82.37 82.57 82.35C82.5 82.33 82.44 82.31 82.37 82.28C82.31 82.26 82.25 82.23 82.18 82.2C82.12 82.17 82.06 82.13 82 82.1C81.95 82.07 81.9 82.04 81.86 82C81.82 81.96 81.78 81.92 81.74 81.87C81.71 81.82 81.68 81.77 81.66 81.72C81.64 81.66 81.63 81.61 81.62 81.55C81.61 81.48 81.6 81.42 81.6 81.35C81.61 81.28 81.62 81.22 81.64 81.15C81.66 81.09 81.68 81.03 81.72 80.97C81.75 80.91 81.79 80.86 81.84 80.81C81.89 80.76 81.94 80.71 81.99 80.67C82.05 80.62 82.11 80.58 82.17 80.55C82.23 80.51 82.3 80.49 82.36 80.46C82.43 80.44 82.5 80.42 82.57 80.41C82.61 80.4 82.66 80.4 82.7 80.39C82.74 80.39 82.79 80.39 82.83 80.4C82.87 80.4 82.92 80.41 82.96 80.42C83 80.44 83.04 80.45 83.08 80.47C83.11 80.49 83.14 80.51 83.17 80.53C83.2 80.55 83.23 80.58 83.26 80.6C83.28 80.63 83.31 80.65 83.33 80.68C83.36 80.71 83.38 80.74 83.4 80.77C83.42 80.8 83.44 80.83 83.45 80.87C83.47 80.9 83.48 80.93 83.5 80.96C83.51 81 83.53 81.03 83.54 81.07C83.55 81.1 83.56 81.13 83.57 81.17C83.58 81.2 83.59 81.23 83.59 81.26C83.6 81.29 83.61 81.31 83.62 81.34C83.62 81.37 83.63 81.4 83.63 81.43C83.64 81.46 83.65 81.49 83.65 81.52C83.67 81.62 83.7 81.71 83.76 81.71C83.79 81.72 83.81 81.72 83.84 81.72C83.87 81.73 83.89 81.73 83.92 81.73C83.95 81.73 83.97 81.73 84 81.72C84.03 81.72 84.05 81.72 84.08 81.71C84.19 81.7 84.3 81.68 84.4 81.64C84.51 81.61 84.61 81.57 84.71 81.52C84.8 81.47 84.89 81.4 84.98 81.33C85.06 81.26 85.14 81.19 85.21 81.1C85.27 81.01 85.32 80.92 85.36 80.82C85.4 80.72 85.44 80.61 85.45 80.51C85.47 80.4 85.48 80.3 85.48 80.19C85.47 80.08 85.46 79.97 85.43 79.87C85.41 79.73 85.38 79.6 85.33 79.47C85.29 79.34 85.22 79.22 85.15 79.1C85.08 78.99 84.99 78.88 84.89 78.78C84.79 78.69 84.69 78.6 84.57 78.53C84.42 78.45 84.26 78.38 84.09 78.33C83.93 78.28 83.76 78.25 83.59 78.23C83.42 78.21 83.25 78.2 83.08 78.22C82.91 78.23 82.74 78.26 82.57 78.3C82.46 78.32 82.35 78.34 82.24 78.37C82.13 78.39 82.02 78.42 81.92 78.45C81.81 78.48 81.7 78.52 81.6 78.56C81.49 78.6 81.39 78.64 81.29 78.69C81.19 78.73 81.09 78.78 80.99 78.84C80.89 78.89 80.8 78.95 80.71 79.02C80.62 79.08 80.53 79.15 80.44 79.22C80.36 79.29 80.28 79.37 80.2 79.45C80.12 79.53 80.05 79.62 79.98 79.71C79.92 79.8 79.85 79.89 79.8 79.99C79.74 80.08 79.69 80.18 79.64 80.29C79.6 80.39 79.55 80.49 79.52 80.6C79.48 80.72 79.45 80.85 79.43 80.98C79.4 81.11 79.39 81.24 79.38 81.37C79.38 81.5 79.38 81.63 79.39 81.76C79.4 81.89 79.41 82.02 79.44 82.15C79.46 82.26 79.48 82.37 79.51 82.48C79.54 82.59 79.57 82.69 79.62 82.8C79.66 82.9 79.7 83 79.76 83.1C79.81 83.2 79.87 83.3 79.93 83.39C79.98 83.46 80.04 83.53 80.1 83.6C80.16 83.66 80.22 83.73 80.29 83.79C80.35 83.85 80.42 83.9 80.5 83.96C80.57 84.01 80.64 84.06 80.72 84.1C80.79 84.14 80.87 84.18 80.94 84.22C81.02 84.25 81.09 84.29 81.17 84.32C81.25 84.35 81.33 84.37 81.41 84.4C81.49 84.42 81.57 84.44 81.65 84.46L82.56 84.66C82.62 84.67 82.68 84.69 82.75 84.71C82.81 84.73 82.87 84.75 82.93 84.77C82.99 84.79 83.05 84.81 83.11 84.84C83.16 84.86 83.22 84.89 83.28 84.92C83.33 84.95 83.37 84.98 83.41 85.01C83.45 85.05 83.48 85.09 83.51 85.13C83.54 85.17 83.57 85.22 83.59 85.27C83.61 85.32 83.62 85.37 83.63 85.42C83.64 85.45 83.64 85.48 83.65 85.5C83.65 85.53 83.65 85.56 83.65 85.59C83.65 85.62 83.65 85.65 83.65 85.68C83.64 85.7 83.64 85.73 83.63 85.76C83.62 85.78 83.61 85.81 83.59 85.83C83.58 85.86 83.57 85.88 83.55 85.9C83.53 85.92 83.52 85.94 83.5 85.96C83.48 85.98 83.46 86 83.44 86.02C83.42 86.04 83.39 86.06 83.37 86.07C83.34 86.09 83.32 86.1 83.29 86.12C83.27 86.13 83.24 86.15 83.21 86.16C83.19 86.17 83.16 86.18 83.13 86.19C83.1 86.2 83.07 86.21 83.04 86.22C83.01 86.23 82.98 86.24 82.95 86.25C82.92 86.26 82.89 86.27 82.85 86.27C82.82 86.28 82.79 86.29 82.76 86.29C82.69 86.31 82.62 86.32 82.55 86.33C82.47 86.34 82.4 86.34 82.33 86.34C82.26 86.34 82.19 86.34 82.11 86.33C82.04 86.32 81.97 86.31 81.9 86.29C81.84 86.28 81.78 86.26 81.72 86.24C81.66 86.23 81.6 86.21 81.55 86.18C81.49 86.16 81.43 86.14 81.38 86.11C81.32 86.09 81.26 86.06 81.21 86.03L80.66 85.75C80.63 85.73 80.59 85.72 80.56 85.7C80.52 85.69 80.49 85.68 80.45 85.67C80.42 85.66 80.38 85.66 80.34 85.66C80.3 85.65 80.27 85.66 80.23 85.66C80.05 85.69 79.93 85.84 79.93 86.12C79.93 86.23 79.93 86.34 79.93 86.45C79.93 86.56 79.94 86.66 79.95 86.77C79.96 86.88 79.97 86.99 79.99 87.1C80.01 87.21 80.03 87.31 80.05 87.42C80.06 87.47 80.08 87.51 80.1 87.55C80.12 87.6 80.14 87.64 80.17 87.67C80.2 87.71 80.23 87.75 80.27 87.78C80.3 87.81 80.34 87.84 80.38 87.86C80.44 87.9 80.49 87.94 80.55 87.98C80.61 88.02 80.68 88.05 80.74 88.08C80.8 88.12 80.87 88.14 80.93 88.17C81 88.2 81.06 88.22 81.13 88.24C81.22 88.27 81.3 88.29 81.39 88.31C81.48 88.33 81.57 88.35 81.66 88.37C81.75 88.38 81.84 88.4 81.93 88.41C82.02 88.42 82.11 88.42 82.2 88.43C82.31 88.44 82.41 88.44 82.52 88.45C82.63 88.45 82.73 88.45 82.84 88.44C82.95 88.44 83.06 88.43 83.16 88.42C83.27 88.4 83.37 88.39 83.48 88.37C83.6 88.35 83.71 88.33 83.83 88.3C83.94 88.27 84.06 88.24 84.17 88.2C84.28 88.16 84.39 88.12 84.5 88.07C84.61 88.02 84.72 87.97 84.82 87.91C84.91 87.86 84.99 87.81 85.07 87.76C85.15 87.7 85.23 87.64 85.3 87.57C85.37 87.51 85.44 87.44 85.51 87.37C85.57 87.3 85.63 87.22 85.69 87.14C85.74 87.07 85.79 86.99 85.84 86.91C85.88 86.83 85.92 86.75 85.96 86.66C86 86.58 86.03 86.49 86.06 86.41C86.08 86.32 86.1 86.23 86.12 86.14C86.14 86.04 86.15 85.94 86.16 85.84ZM90.01 78.34C90.01 78.19 90.01 78.05 90.01 77.93C90.01 77.91 90 77.88 90 77.86C89.99 77.83 89.99 77.81 89.98 77.79C89.97 77.76 89.97 77.74 89.96 77.72C89.95 77.69 89.94 77.67 89.93 77.65C89.92 77.63 89.91 77.61 89.9 77.59C89.88 77.57 89.87 77.56 89.86 77.54C89.84 77.52 89.83 77.51 89.81 77.49C89.8 77.48 89.78 77.46 89.76 77.45C89.73 77.44 89.71 77.43 89.68 77.42C89.65 77.41 89.62 77.4 89.59 77.39C89.57 77.39 89.54 77.38 89.51 77.38C89.48 77.37 89.45 77.37 89.42 77.37C89.37 77.36 89.33 77.36 89.28 77.36C89.23 77.36 89.19 77.35 89.14 77.35C89.09 77.35 89.05 77.36 89 77.36C88.95 77.36 88.91 77.36 88.86 77.37C88.84 77.37 88.81 77.38 88.79 77.38C88.76 77.39 88.74 77.4 88.72 77.41C88.69 77.41 88.67 77.42 88.65 77.43C88.62 77.45 88.6 77.46 88.58 77.47C88.55 77.49 88.53 77.52 88.51 77.55C88.49 77.58 88.47 77.61 88.46 77.64C88.44 77.68 88.43 77.71 88.42 77.74C88.42 77.78 88.41 77.81 88.41 77.85C88.26 79 88.12 80 88 80.85C87.88 81.7 87.79 82.47 87.7 83.09C87.61 83.71 87.55 84.27 87.49 84.71C87.43 85.15 87.37 85.52 87.37 85.82C87.37 86.12 87.37 86.36 87.37 86.54C87.37 86.58 87.36 86.61 87.36 86.65C87.36 86.69 87.36 86.73 87.36 86.77C87.36 86.8 87.36 86.84 87.36 86.88C87.36 86.92 87.37 86.95 87.37 86.99C87.37 87.02 87.38 87.06 87.39 87.09C87.39 87.12 87.4 87.15 87.41 87.18C87.43 87.22 87.44 87.25 87.46 87.28C87.47 87.3 87.49 87.33 87.51 87.36C87.52 87.38 87.54 87.4 87.56 87.42C87.58 87.43 87.6 87.45 87.62 87.46C87.64 87.48 87.66 87.49 87.68 87.5C87.7 87.51 87.73 87.52 87.75 87.53C87.77 87.54 87.8 87.54 87.82 87.54C87.85 87.55 87.87 87.55 87.9 87.55C87.93 87.55 87.95 87.55 87.98 87.54C88 87.54 88.03 87.54 88.05 87.53L88.41 87.53C88.45 87.53 88.48 87.52 88.52 87.51C88.55 87.5 88.59 87.49 88.62 87.48C88.66 87.47 88.69 87.45 88.73 87.44C88.76 87.42 88.79 87.4 88.82 87.38C88.85 87.35 88.87 87.31 88.89 87.27C88.92 87.24 88.94 87.2 88.95 87.16C88.97 87.11 88.98 87.07 88.99 87.03C88.99 86.99 89 86.94 89 86.9L89.4 83.75C89.53 82.86 89.63 82.1 89.71 81.48C89.79 80.86 89.8 80.34 89.9 79.93C90 79.52 90 79.19 90 78.93C90 78.67 90.01 78.49 90.01 78.34Z"></path>
</svg>