<svg xmlns="http://www.w3.org/2000/svg" fill="currentColor" viewBox="0 0 133.62 133.62" stroke-width="1">
                      <path fill-rule="evenodd" d="M79.28 37.71C79.28 40.89 79.28 44.07 79.28 47.26C79.28 48.66 79.88 49.26 81.28 49.26L90 49.26C91 49.26 91 49.26 91 50.26L91 88.71C91 90.37 90.4 90.97 88.74 90.97C88.61 90.97 68.73 90.97 68.6 90.97C68.21 90.97 68.07 90.84 68.24 90.46C68.24 90.36 68.33 90.25 68.38 90.15C68.65 89.54 68.87 88.92 69.05 88.28C69.24 87.64 69.37 86.99 69.47 86.34C69.56 85.68 69.61 85.02 69.61 84.35C69.62 83.69 69.58 83.03 69.49 82.37C69.35 81.13 69.06 79.91 68.61 78.75C68.17 77.58 67.58 76.47 66.86 75.46C66.14 74.44 65.3 73.51 64.35 72.7C63.4 71.89 62.35 71.21 61.23 70.66C61.04 70.56 60.79 70.53 60.7 70.28C60.76 70.26 60.82 70.24 60.88 70.22C60.94 70.2 61.01 70.19 61.07 70.18C61.13 70.18 61.2 70.17 61.26 70.17C61.32 70.18 61.39 70.18 61.45 70.19C61.69 70.19 79.66 70.19 79.91 70.19C80.1 70.18 80.3 70.14 80.47 70.06C80.65 69.99 80.82 69.88 80.95 69.74C81.09 69.6 81.21 69.44 81.28 69.26C81.36 69.09 81.41 68.89 81.42 68.7C81.44 68.5 81.43 68.31 81.38 68.12C81.33 67.93 81.24 67.75 81.12 67.59C81 67.44 80.86 67.3 80.69 67.2C80.52 67.1 80.33 67.03 80.14 67C80.07 66.99 79.99 66.97 79.92 66.96C79.84 66.95 79.77 66.94 79.69 66.94C79.62 66.93 79.54 66.93 79.47 66.92C79.39 66.92 79.32 66.92 79.24 66.92L59.64 66.92C59.56 66.92 59.47 66.92 59.39 66.92C59.3 66.93 59.22 66.93 59.14 66.94C59.05 66.95 58.97 66.96 58.89 66.98C58.8 66.99 58.72 67.01 58.64 67.03C58.45 67.07 58.26 67.15 58.1 67.26C57.93 67.38 57.79 67.52 57.68 67.68C57.57 67.85 57.49 68.03 57.44 68.23C57.4 68.42 57.4 68.62 57.43 68.82C57.57 69.47 57.29 69.41 56.84 69.34C56.24 69.24 55.64 69.18 55.03 69.16C54.43 69.14 53.82 69.16 53.22 69.21C52.62 69.26 52.02 69.35 51.43 69.47C50.84 69.6 50.25 69.76 49.68 69.96C48.61 70.33 48.61 70.34 48.61 69.2C48.61 68.97 48.61 39.93 48.61 39.7C48.59 39.49 48.61 39.28 48.66 39.08C48.71 38.88 48.79 38.69 48.9 38.51C49.01 38.33 49.14 38.17 49.3 38.04C49.46 37.9 49.64 37.79 49.83 37.71L79.28 37.71ZM69.39 63.39C69.66 63.39 79.75 63.39 80.01 63.39C80.4 63.34 80.76 63.14 81.02 62.85C81.28 62.55 81.42 62.17 81.42 61.78C81.42 61.38 81.28 61 81.02 60.7C80.76 60.41 80.4 60.21 80.01 60.16C79.78 60.16 79.55 60.16 79.33 60.16L59.54 60.16C59.48 60.16 59.42 60.15 59.36 60.15C59.29 60.15 59.23 60.15 59.17 60.15C59.11 60.15 59.05 60.15 58.98 60.15C58.92 60.15 58.86 60.16 58.8 60.16C58.62 60.18 58.44 60.24 58.27 60.32C58.1 60.4 57.95 60.51 57.83 60.65C57.7 60.78 57.59 60.94 57.52 61.1C57.44 61.27 57.39 61.46 57.38 61.64C57.37 61.82 57.39 62 57.43 62.17C57.48 62.35 57.56 62.51 57.66 62.66C57.75 62.82 57.88 62.95 58.02 63.06C58.16 63.17 58.32 63.26 58.49 63.32C58.57 63.34 58.65 63.35 58.74 63.37C58.82 63.38 58.9 63.39 58.99 63.4C59.07 63.4 59.15 63.41 59.24 63.41C59.32 63.41 59.41 63.41 59.49 63.4L69.39 63.39ZM65.47 53.32C63.35 53.32 61.22 53.32 59.1 53.32C58.82 53.31 58.55 53.36 58.3 53.48C58.05 53.61 57.84 53.79 57.68 54.02C57.52 54.24 57.42 54.51 57.4 54.78C57.37 55.06 57.41 55.34 57.52 55.59C57.6 55.76 57.71 55.91 57.83 56.05C57.96 56.19 58.11 56.3 58.28 56.39C58.44 56.48 58.62 56.54 58.8 56.58C58.99 56.61 59.17 56.62 59.36 56.59L71.58 56.59C71.76 56.61 71.95 56.6 72.13 56.57C72.31 56.53 72.48 56.47 72.64 56.38C72.8 56.29 72.95 56.18 73.07 56.04C73.2 55.91 73.3 55.76 73.38 55.59C73.49 55.34 73.54 55.06 73.51 54.78C73.49 54.51 73.39 54.24 73.24 54.02C73.08 53.79 72.87 53.6 72.63 53.48C72.38 53.35 72.11 53.29 71.83 53.3C69.71 53.31 67.59 53.32 65.47 53.32Z"></path>
                      <path fill-rule="evenodd" d="M53 95.92C52.48 95.85 51.97 95.74 51.47 95.6C50.97 95.47 50.47 95.29 49.99 95.09C49.51 94.89 49.04 94.65 48.59 94.39C48.14 94.12 47.71 93.83 47.3 93.51C43.54 90.41 42 86.4 43 81.64C43.21 80.51 43.59 79.42 44.14 78.41C44.68 77.39 45.37 76.47 46.2 75.67C47.02 74.87 47.97 74.2 48.99 73.68C50.02 73.17 51.12 72.82 52.26 72.64C55.34 72.12 58.5 72.83 61.05 74.63C63.6 76.43 65.33 79.17 65.86 82.25C66.39 85.32 65.68 88.48 63.88 91.03C62.07 93.58 59.34 95.31 56.26 95.84C56.24 95.85 56.21 95.86 56.19 95.86C56.16 95.87 56.14 95.87 56.12 95.88C56.09 95.88 56.07 95.89 56.05 95.9C56.03 95.9 56 95.91 55.98 95.92L53 95.92ZM56.15 82.18C56.15 81.33 56.15 80.48 56.15 79.63C56.15 79.22 56 78.83 55.72 78.53C55.45 78.23 55.07 78.04 54.67 78C54.26 77.96 53.85 78.07 53.53 78.32C53.2 78.56 52.98 78.92 52.9 79.32C52.89 79.38 52.88 79.44 52.87 79.5C52.86 79.57 52.86 79.63 52.85 79.69C52.85 79.75 52.84 79.81 52.84 79.87C52.84 79.94 52.84 80 52.84 80.06C52.84 81.53 52.84 83.06 52.84 84.48C52.84 84.67 52.92 84.91 52.74 85.01C52.56 85.11 52.37 84.89 52.21 84.78C51.85 84.53 51.51 84.25 51.15 84.01C50.98 83.88 50.78 83.79 50.58 83.73C50.37 83.68 50.15 83.67 49.94 83.7C49.73 83.73 49.53 83.8 49.34 83.9C49.15 84.01 48.99 84.15 48.86 84.32C48.72 84.49 48.62 84.69 48.56 84.9C48.5 85.11 48.49 85.33 48.52 85.55C48.55 85.77 48.62 85.98 48.74 86.16C48.85 86.35 49 86.51 49.18 86.64C50.6 87.74 52.05 88.81 53.5 89.86C53.64 89.97 53.8 90.06 53.97 90.12C54.14 90.18 54.32 90.21 54.5 90.21C54.68 90.21 54.86 90.18 55.03 90.12C55.2 90.06 55.36 89.97 55.5 89.86C57.01 88.86 58.5 87.75 59.98 86.66C60.16 86.54 60.32 86.39 60.44 86.2C60.56 86.02 60.65 85.81 60.68 85.6C60.72 85.38 60.71 85.16 60.66 84.95C60.6 84.73 60.5 84.53 60.37 84.36C60.24 84.18 60.08 84.03 59.9 83.91C59.71 83.8 59.51 83.72 59.29 83.69C59.08 83.65 58.86 83.66 58.64 83.72C58.43 83.77 58.23 83.87 58.06 84C57.58 84.31 57.13 84.65 56.67 85C56.21 85.35 56.16 85.19 56.16 84.75C56.17 83.89 56.17 83 56.17 82.18L56.15 82.18Z"></path>
                      <path d="M86 45.93C85 45.93 84.11 45.93 83.16 45.93C82.73 45.93 82.53 45.79 82.53 45.35C82.53 43.46 82.53 41.56 82.53 39.67C82.53 39.53 82.53 39.34 82.69 39.28C82.85 39.22 82.93 39.38 83.02 39.47L89.14 45.47C89.24 45.57 89.42 45.67 89.32 45.84C89.22 46.01 89.08 45.92 88.95 45.92L86 45.92L86 45.93Z"></path>
                    </svg>