<svg xmlns="http://www.w3.org/2000/svg" fill="currentColor" viewBox="0 0 134 134" stroke-width="1">
                      <style>
                        .shp0-nuevo {
                          fill: #ffce00;
                        }
                      </style>
                      <path  class="shp0-nuevo" d="M82.38 37.41C82.38 36.19 83.36 35.21 84.58 35.21L103.68 35.21C104.9 35.21 105.88 36.19 105.88 37.41L105.88 40.97C105.88 42.19 104.9 43.17 103.68 43.17L84.58 43.17C83.36 43.17 82.38 42.19 82.38 40.97L82.38 37.41Z"></path>
                      <path  class="shp0-nuevo" d="M82.38 37.41C82.38 36.19 83.36 35.21 84.58 35.21L103.68 35.21C104.9 35.21 105.88 36.19 105.88 37.41L105.88 40.97C105.88 42.19 104.9 43.17 103.68 43.17L84.58 43.17C83.36 43.17 82.38 42.19 82.38 40.97L82.38 37.41Z"></path>
                      <path  class="shp1" d="M87.86 41.49L86.66 41.49L85 38.86L85 41.49L83.9 41.49L83.9 37.05L85.09 37.05L86.71 39.68L86.71 37.05L87.86 37.05L87.86 41.49Z"></path>
                      <path  class="shp1" d="M92.15 39.84C92.16 39.96 92.16 40.07 92.15 40.19C92.13 40.31 92.11 40.42 92.08 40.53C92.04 40.65 92 40.75 91.94 40.86C91.89 40.96 91.82 41.06 91.75 41.15C91.55 41.28 91.33 41.39 91.1 41.45C90.87 41.52 90.63 41.56 90.38 41.56C90.14 41.56 89.9 41.52 89.67 41.45C89.44 41.39 89.22 41.28 89.02 41.15C88.94 41.06 88.88 40.96 88.82 40.86C88.77 40.76 88.72 40.65 88.68 40.54C88.65 40.42 88.63 40.31 88.61 40.19C88.6 40.07 88.6 39.96 88.61 39.84L88.61 37.05L89.81 37.05L89.81 39.8C89.81 39.85 89.81 39.91 89.81 39.96C89.81 40.02 89.82 40.07 89.83 40.13C89.84 40.18 89.85 40.23 89.86 40.29C89.88 40.34 89.9 40.39 89.92 40.44C89.98 40.57 90.14 40.64 90.38 40.64C90.62 40.64 90.77 40.58 90.84 40.45C90.86 40.4 90.88 40.35 90.89 40.29C90.91 40.24 90.92 40.19 90.93 40.13C90.94 40.08 90.94 40.02 90.94 39.97C90.95 39.91 90.94 39.86 90.94 39.8L90.94 37.05L92.15 37.05L92.15 39.84Z"></path>
                      <path  class="shp1" d="M96 40.59L96 41.49L92.89 41.49L92.89 37.05L96 37.05L96 38L94.09 38L94.09 38.8L95.87 38.8L95.87 39.68L94.09 39.68L94.09 40.68L96 40.59Z"></path>
                      <path  class="shp1" d="M97.75 41.49L96.26 37.05L97.45 37.05L98.31 39.88L99.17 37.05L100.36 37.05L98.88 41.49L97.75 41.49Z"></path>
                      <path  fill-rule="evenodd" class="shp1" d="M101.85 37.04C101.92 37.03 101.99 37.01 102.05 37C102.12 36.99 102.19 36.98 102.26 36.98C102.33 36.97 102.4 36.97 102.47 36.97C102.54 36.97 102.61 36.97 102.68 36.98C102.75 36.98 102.82 36.99 102.89 37C102.96 37.01 103.03 37.03 103.1 37.04C103.17 37.06 103.23 37.08 103.3 37.1C103.35 37.12 103.4 37.14 103.46 37.16C103.51 37.18 103.56 37.21 103.6 37.24C103.65 37.27 103.7 37.3 103.74 37.33C103.79 37.37 103.83 37.4 103.87 37.44C103.91 37.48 103.94 37.52 103.97 37.56C104 37.6 104.03 37.64 104.06 37.68C104.09 37.73 104.11 37.77 104.14 37.82C104.16 37.86 104.18 37.91 104.2 37.96C104.22 38.01 104.24 38.06 104.26 38.11C104.28 38.16 104.3 38.21 104.31 38.26C104.33 38.32 104.34 38.37 104.35 38.42C104.36 38.47 104.37 38.53 104.38 38.58C104.38 38.64 104.39 38.69 104.39 38.75C104.39 38.81 104.39 38.87 104.39 38.93C104.39 38.98 104.39 39.04 104.39 39.1C104.39 39.16 104.38 39.21 104.38 39.27C104.38 39.33 104.39 39.38 104.39 39.44C104.39 39.5 104.39 39.56 104.39 39.62C104.39 39.67 104.39 39.73 104.39 39.79C104.39 39.85 104.38 39.9 104.38 39.96C104.37 40.01 104.36 40.07 104.35 40.12C104.34 40.17 104.33 40.22 104.31 40.27C104.3 40.33 104.28 40.38 104.26 40.43C104.25 40.48 104.23 40.53 104.21 40.58C104.19 40.63 104.17 40.67 104.14 40.72C104.12 40.76 104.09 40.81 104.06 40.85C104.03 40.89 104 40.93 103.97 40.97C103.94 41.01 103.91 41.05 103.87 41.09C103.83 41.13 103.79 41.16 103.74 41.2C103.7 41.23 103.65 41.26 103.6 41.29C103.55 41.32 103.51 41.34 103.46 41.37C103.4 41.39 103.35 41.41 103.3 41.43C103.23 41.45 103.16 41.47 103.1 41.49C103.03 41.51 102.96 41.52 102.89 41.53C102.82 41.54 102.74 41.55 102.67 41.56C102.6 41.56 102.53 41.56 102.46 41.56C102.39 41.56 102.32 41.56 102.25 41.56C102.18 41.55 102.11 41.54 102.04 41.53C101.98 41.52 101.91 41.51 101.84 41.49C101.77 41.47 101.71 41.45 101.64 41.43C101.59 41.41 101.54 41.39 101.49 41.37C101.44 41.35 101.39 41.32 101.34 41.29C101.29 41.26 101.25 41.23 101.2 41.2C101.16 41.16 101.12 41.13 101.08 41.09C101.04 41.05 101.01 41.01 100.98 40.97C100.95 40.93 100.92 40.89 100.89 40.85C100.86 40.81 100.83 40.76 100.81 40.72C100.78 40.67 100.76 40.63 100.74 40.58C100.72 40.53 100.7 40.48 100.69 40.43C100.67 40.38 100.65 40.33 100.64 40.27C100.62 40.22 100.61 40.17 100.6 40.12C100.59 40.07 100.58 40.01 100.57 39.96C100.56 39.85 100.55 39.73 100.54 39.62C100.53 39.5 100.53 39.39 100.53 39.27C100.53 39.15 100.53 39.04 100.54 38.92C100.55 38.81 100.56 38.69 100.57 38.58C100.58 38.53 100.59 38.47 100.6 38.42C100.61 38.37 100.62 38.32 100.64 38.26C100.65 38.21 100.67 38.16 100.69 38.11C100.71 38.06 100.73 38.01 100.75 37.96C100.77 37.91 100.79 37.86 100.82 37.82C100.84 37.77 100.87 37.73 100.89 37.68C100.92 37.64 100.95 37.6 100.99 37.56C101.02 37.52 101.05 37.48 101.09 37.44C101.13 37.4 101.17 37.37 101.22 37.33C101.26 37.3 101.31 37.27 101.35 37.24C101.4 37.21 101.45 37.19 101.5 37.16C101.55 37.14 101.6 37.12 101.65 37.1C101.72 37.08 101.78 37.06 101.85 37.04ZM102.06 40.53C102.09 40.55 102.12 40.56 102.16 40.57C102.19 40.59 102.22 40.6 102.26 40.61C102.29 40.61 102.33 40.62 102.36 40.63C102.4 40.63 102.43 40.63 102.47 40.63C102.51 40.63 102.54 40.63 102.58 40.62C102.61 40.62 102.65 40.61 102.68 40.61C102.72 40.6 102.75 40.59 102.78 40.57C102.82 40.56 102.85 40.55 102.88 40.53C102.91 40.51 102.93 40.49 102.96 40.47C102.98 40.45 103 40.42 103.02 40.4C103.04 40.37 103.06 40.35 103.08 40.32C103.09 40.29 103.11 40.26 103.12 40.23C103.13 40.2 103.15 40.16 103.16 40.13C103.17 40.09 103.18 40.06 103.19 40.02C103.19 39.99 103.2 39.95 103.21 39.92C103.21 39.88 103.22 39.85 103.22 39.81C103.22 39.77 103.23 39.72 103.23 39.68C103.23 39.63 103.23 39.59 103.23 39.54C103.23 39.49 103.23 39.45 103.23 39.4C103.23 39.36 103.22 39.31 103.22 39.27C103.22 39.1 103.22 38.95 103.22 38.83C103.22 38.8 103.21 38.77 103.21 38.73C103.21 38.7 103.2 38.67 103.2 38.64C103.19 38.61 103.18 38.57 103.18 38.54C103.17 38.51 103.16 38.48 103.15 38.45C103.14 38.42 103.14 38.4 103.13 38.37C103.12 38.34 103.11 38.31 103.1 38.29C103.09 38.26 103.08 38.24 103.06 38.21C103.05 38.19 103.04 38.16 103.02 38.14C103.01 38.12 102.99 38.1 102.97 38.08C102.96 38.06 102.94 38.05 102.92 38.03C102.9 38.01 102.88 38 102.86 37.99C102.84 37.97 102.81 37.96 102.79 37.95C102.76 37.94 102.74 37.93 102.71 37.92C102.68 37.91 102.65 37.9 102.62 37.89C102.6 37.89 102.57 37.88 102.54 37.88C102.51 37.88 102.48 37.88 102.45 37.88C102.41 37.88 102.38 37.88 102.34 37.88C102.31 37.89 102.27 37.89 102.24 37.9C102.2 37.91 102.17 37.92 102.14 37.93C102.1 37.95 102.07 37.96 102.04 37.98C102.01 38 101.99 38.02 101.96 38.04C101.94 38.06 101.91 38.09 101.89 38.11C101.87 38.14 101.85 38.17 101.84 38.2C101.82 38.23 101.81 38.26 101.8 38.29C101.79 38.32 101.77 38.36 101.76 38.39C101.75 38.43 101.74 38.47 101.73 38.5C101.72 38.54 101.71 38.57 101.71 38.61C101.7 38.65 101.69 38.68 101.69 38.72C101.69 38.77 101.68 38.81 101.68 38.86C101.68 38.9 101.68 38.95 101.68 39C101.68 39.04 101.68 39.09 101.68 39.13C101.68 39.18 101.69 39.22 101.69 39.27C101.69 39.31 101.68 39.36 101.68 39.4C101.68 39.45 101.68 39.49 101.68 39.54C101.68 39.59 101.68 39.63 101.68 39.68C101.68 39.72 101.69 39.77 101.69 39.81C101.69 39.85 101.7 39.88 101.71 39.92C101.71 39.95 101.72 39.99 101.73 40.02C101.74 40.06 101.75 40.09 101.76 40.13C101.77 40.16 101.79 40.2 101.8 40.23C101.81 40.26 101.83 40.29 101.84 40.32C101.86 40.35 101.88 40.38 101.9 40.4C101.93 40.43 101.95 40.45 101.98 40.47C102 40.49 102.03 40.51 102.06 40.53Z"></path>
                      <path  class="shp2" d="M53.48 77.35L94.18 77.35C94.08 77.93 93.98 78.46 93.91 79C93.84 79.54 93.65 79.64 93.16 79.64C90.73 79.64 88.3 79.64 85.88 79.64L54.51 79.64C53.14 79.64 53.09 79.57 53.32 78.26C53.37 78 53.42 77.67 53.48 77.35Z"></path>
                      <path  class="shp2" d="M54.64 82L91.86 82C91.75 82.64 91.69 83.25 91.53 83.83C91.53 84.02 91.2 84.17 91 84.28C90.96 84.29 90.92 84.29 90.88 84.3C90.84 84.3 90.8 84.3 90.77 84.3C90.73 84.3 90.69 84.3 90.65 84.3C90.61 84.29 90.57 84.29 90.53 84.28L55.53 84.28C54.34 84.28 54.23 84.15 54.43 82.99C54.5 82.66 54.57 82.36 54.64 82Z"></path>
                      <path  class="shp2" d="M43.47 49.34L52.05 49.34C52.12 49.34 52.19 49.34 52.25 49.34C52.32 49.34 52.39 49.34 52.46 49.35C52.52 49.35 52.59 49.36 52.66 49.37C52.73 49.38 52.79 49.4 52.86 49.41C52.99 49.43 53.11 49.47 53.21 49.54C53.32 49.6 53.42 49.69 53.5 49.79C53.57 49.89 53.63 50 53.67 50.12C53.7 50.25 53.71 50.37 53.7 50.5C53.71 50.63 53.69 50.75 53.66 50.87C53.62 50.99 53.56 51.11 53.48 51.21C53.41 51.31 53.31 51.39 53.21 51.46C53.1 51.53 52.98 51.57 52.86 51.6C52.79 51.61 52.73 51.62 52.66 51.63C52.59 51.64 52.52 51.65 52.46 51.66C52.39 51.66 52.32 51.67 52.25 51.67C52.19 51.67 52.12 51.67 52.05 51.67L34.76 51.67C34.7 51.67 34.64 51.67 34.57 51.67C34.51 51.67 34.45 51.67 34.39 51.66C34.33 51.66 34.26 51.65 34.2 51.64C34.14 51.63 34.08 51.62 34.02 51.61C33.89 51.59 33.77 51.54 33.65 51.47C33.54 51.4 33.44 51.31 33.36 51.21C33.28 51.1 33.22 50.99 33.19 50.86C33.15 50.73 33.14 50.6 33.15 50.47C33.14 50.34 33.15 50.22 33.19 50.1C33.23 49.98 33.29 49.87 33.36 49.77C33.44 49.67 33.54 49.59 33.65 49.52C33.76 49.46 33.88 49.42 34 49.4C34.07 49.39 34.14 49.38 34.2 49.37C34.27 49.36 34.34 49.35 34.41 49.35C34.48 49.34 34.55 49.34 34.61 49.34C34.68 49.34 34.75 49.34 34.82 49.34L43.47 49.34Z"></path>
                      <path  class="shp2" d="M41.82 57.46L34.48 57.46C33.62 57.46 33.12 57 33.15 56.27C33.15 56.11 33.19 55.95 33.26 55.81C33.32 55.67 33.42 55.54 33.54 55.43C33.66 55.33 33.8 55.25 33.95 55.2C34.1 55.15 34.26 55.13 34.42 55.15C35.35 55.15 36.28 55.15 37.21 55.15C41.15 55.15 45.09 55.15 49.03 55.15C49.12 55.14 49.22 55.14 49.31 55.15C49.4 55.16 49.5 55.17 49.59 55.2C49.68 55.22 49.76 55.26 49.85 55.3C49.93 55.34 50.01 55.38 50.09 55.44C50.16 55.52 50.21 55.61 50.26 55.71C50.31 55.8 50.35 55.9 50.39 56.01C50.42 56.11 50.44 56.21 50.45 56.32C50.46 56.43 50.47 56.53 50.46 56.64C50.44 56.76 50.4 56.87 50.35 56.97C50.29 57.07 50.21 57.16 50.12 57.24C50.03 57.31 49.92 57.37 49.81 57.4C49.7 57.44 49.58 57.45 49.46 57.44C48.46 57.44 47.46 57.44 46.46 57.44L41.82 57.46Z"></path>
                      <path  class="shp2" d="M40.07 66.77L45.44 66.77C45.51 66.77 45.58 66.77 45.64 66.77C45.71 66.77 45.78 66.77 45.85 66.78C45.91 66.78 45.98 66.79 46.05 66.8C46.12 66.81 46.18 66.83 46.25 66.84C46.48 66.91 46.69 67.06 46.83 67.25C46.98 67.45 47.06 67.69 47.06 67.93C47.06 68.17 46.98 68.41 46.83 68.61C46.69 68.8 46.48 68.95 46.25 69.02C46.18 69.03 46.11 69.05 46.03 69.06C45.96 69.07 45.89 69.08 45.81 69.08C45.74 69.09 45.66 69.09 45.59 69.09C45.52 69.09 45.44 69.09 45.37 69.09L34.83 69.09C34.77 69.1 34.71 69.1 34.64 69.1C34.58 69.11 34.52 69.11 34.45 69.11C34.39 69.11 34.33 69.11 34.27 69.1C34.2 69.1 34.14 69.1 34.08 69.09C33.95 69.07 33.81 69.03 33.7 68.96C33.58 68.89 33.47 68.81 33.39 68.7C33.3 68.59 33.24 68.47 33.2 68.34C33.16 68.21 33.14 68.08 33.15 67.94C33.15 67.81 33.17 67.68 33.21 67.55C33.25 67.43 33.32 67.31 33.4 67.21C33.49 67.11 33.59 67.03 33.71 66.97C33.82 66.91 33.95 66.87 34.08 66.85C34.14 66.84 34.2 66.84 34.27 66.84C34.33 66.83 34.39 66.83 34.45 66.83C34.52 66.83 34.58 66.83 34.64 66.84C34.71 66.84 34.77 66.84 34.83 66.85L40.07 66.77Z"></path>
                      <path  class="shp2" d="M37.82 61L41.08 61C41.89 61 42.41 61.46 42.42 62.13C42.43 62.8 41.89 63.31 41.06 63.32L34.47 63.32C33.65 63.32 33.16 62.87 33.15 62.17C33.14 61.47 33.63 61 34.49 61L37.82 61Z"></path>
                      <path  class="shp2" d="M46.19 74.89C45.4 74.89 44.6 74.89 43.81 74.89C43.65 74.9 43.49 74.88 43.34 74.83C43.19 74.78 43.05 74.7 42.93 74.59C42.82 74.48 42.73 74.34 42.67 74.2C42.6 74.05 42.58 73.89 42.58 73.73C42.58 73.58 42.61 73.42 42.67 73.28C42.73 73.14 42.82 73.01 42.93 72.9C43.04 72.8 43.17 72.71 43.32 72.66C43.46 72.6 43.62 72.57 43.77 72.58C45.38 72.58 46.99 72.58 48.6 72.58C48.92 72.55 49.25 72.66 49.49 72.88C49.73 73.1 49.87 73.41 49.87 73.73C49.87 74.06 49.73 74.37 49.49 74.59C49.25 74.81 48.92 74.92 48.6 74.89C47.78 74.9 47 74.89 46.19 74.89Z"></path>
                      <path  class="shp2" d="M36.6 74.89C35.85 74.89 35.1 74.89 34.35 74.89C34.03 74.92 33.7 74.81 33.46 74.59C33.22 74.37 33.08 74.06 33.08 73.73C33.08 73.41 33.22 73.1 33.46 72.88C33.7 72.66 34.03 72.55 34.35 72.58C35.84 72.58 37.35 72.58 38.84 72.58C39.16 72.55 39.49 72.66 39.73 72.88C39.97 73.1 40.11 73.41 40.11 73.73C40.11 74.06 39.97 74.37 39.73 74.59C39.49 74.81 39.16 74.92 38.84 74.89C38.1 74.9 37.35 74.89 36.6 74.89Z"></path>
                      <path  class="shp2" d="M48.22 61C48.97 61 49.72 61 50.47 61C50.62 60.99 50.78 61.01 50.92 61.07C51.06 61.12 51.2 61.2 51.31 61.31C51.42 61.41 51.51 61.54 51.57 61.68C51.63 61.82 51.67 61.97 51.67 62.12C51.67 62.27 51.64 62.43 51.59 62.57C51.53 62.72 51.44 62.85 51.33 62.96C51.22 63.07 51.09 63.15 50.95 63.21C50.81 63.27 50.65 63.3 50.5 63.3C48.96 63.3 47.42 63.3 45.88 63.3C45.73 63.3 45.57 63.27 45.43 63.2C45.29 63.14 45.16 63.05 45.06 62.94C44.95 62.82 44.87 62.69 44.82 62.54C44.77 62.4 44.75 62.24 44.76 62.09C44.76 61.94 44.79 61.8 44.85 61.66C44.91 61.53 45 61.41 45.11 61.3C45.21 61.2 45.34 61.12 45.48 61.07C45.62 61.02 45.76 60.99 45.91 61C46.68 61 47.45 61 48.22 61Z"></path>
                      <path  fill-rule="evenodd" class="shp2" d="M90.83 54.08C90.88 54.56 91.01 55.04 91.2 55.48C91.39 55.93 91.65 56.34 91.97 56.71C92.28 57.08 92.65 57.4 93.06 57.66C93.47 57.92 93.92 58.11 94.39 58.24C93.94 60.86 93.51 63.34 93.04 65.86C93.02 66 92.79 66.2 92.63 66.2C92.13 66.32 91.64 66.5 91.18 66.73C90.72 66.96 90.28 67.24 89.88 67.57C89.48 67.9 89.12 68.27 88.8 68.68C88.49 69.09 88.22 69.53 88 70C87.96 70.05 87.92 70.1 87.87 70.14C87.82 70.18 87.77 70.22 87.71 70.25C87.65 70.28 87.59 70.3 87.53 70.32C87.47 70.34 87.4 70.35 87.34 70.35C84.34 70.35 64.74 70.35 61.74 70.35C60.94 67.73 60.6 67.35 58.1 66.15C58.54 63.64 58.99 61.13 59.45 58.61C59.46 58.57 59.48 58.52 59.51 58.49C59.53 58.45 59.56 58.41 59.59 58.38C59.62 58.34 59.66 58.32 59.7 58.29C59.74 58.27 59.78 58.25 59.82 58.23C60.33 58.11 60.82 57.94 61.29 57.71C61.76 57.48 62.2 57.19 62.61 56.86C63.01 56.53 63.37 56.16 63.69 55.74C64.01 55.33 64.28 54.88 64.49 54.4C64.57 54.25 64.95 54.08 65 54.08C65.05 54.08 90.76 54.08 90.83 54.08ZM76.06 64.01C76.06 62.45 75.03 61.79 73.22 61.32C71.67 60.92 71.28 60.73 71.28 60.14C71.28 59.7 71.68 59.36 72.43 59.36C72.6 59.37 72.76 59.38 72.93 59.41C73.09 59.44 73.26 59.48 73.42 59.53C73.58 59.58 73.73 59.64 73.88 59.71C74.03 59.79 74.18 59.87 74.32 59.96C74.36 59.98 74.4 60 74.44 60.02C74.48 60.04 74.52 60.05 74.56 60.07C74.6 60.08 74.65 60.09 74.69 60.09C74.73 60.1 74.78 60.1 74.82 60.1C75.02 60.1 75.22 60.04 75.38 59.92C75.54 59.8 75.65 59.63 75.71 59.44C75.76 59.25 75.75 59.04 75.68 58.86C75.6 58.67 75.47 58.51 75.3 58.41C75.09 58.28 74.87 58.16 74.64 58.06C74.41 57.96 74.18 57.88 73.94 57.81C73.7 57.74 73.45 57.69 73.21 57.66C72.96 57.63 72.71 57.62 72.46 57.62C70.63 57.62 69.32 58.69 69.32 60.32C69.32 62.06 70.52 62.6 72.32 63.06C73.82 63.44 74.13 63.7 74.13 64.2C74.13 64.72 73.64 65.04 72.84 65.04C72.63 65.04 72.43 65.02 72.23 64.98C72.02 64.95 71.82 64.89 71.63 64.83C71.43 64.76 71.24 64.67 71.06 64.57C70.88 64.47 70.71 64.36 70.55 64.23C70.51 64.2 70.46 64.18 70.42 64.15C70.37 64.13 70.33 64.11 70.28 64.1C70.23 64.08 70.18 64.07 70.13 64.06C70.08 64.05 70.03 64.05 69.98 64.05C69.86 64.05 69.74 64.07 69.63 64.12C69.52 64.16 69.42 64.23 69.33 64.31C69.24 64.4 69.18 64.5 69.13 64.61C69.08 64.72 69.06 64.84 69.06 64.96C69.06 65.03 69.07 65.1 69.08 65.18C69.1 65.25 69.12 65.31 69.16 65.38C69.19 65.44 69.23 65.5 69.27 65.56C69.32 65.62 69.37 65.67 69.43 65.71C69.67 65.88 69.93 66.04 70.2 66.17C70.47 66.3 70.75 66.42 71.03 66.51C71.32 66.6 71.61 66.67 71.91 66.71C72.2 66.76 72.5 66.78 72.8 66.78C74.73 66.78 76.09 65.78 76.09 64L76.06 64.01ZM83.2 57.49C83.21 57.46 83.22 57.44 83.23 57.41C83.24 57.39 83.25 57.36 83.25 57.33C83.26 57.31 83.27 57.28 83.27 57.25C83.27 57.22 83.28 57.2 83.28 57.17C83.28 57.07 83.25 56.98 83.21 56.89C83.18 56.8 83.12 56.72 83.05 56.66C82.98 56.59 82.9 56.53 82.81 56.5C82.72 56.46 82.63 56.44 82.53 56.44C82.46 56.44 82.39 56.45 82.32 56.47C82.25 56.49 82.18 56.52 82.12 56.56C82.06 56.6 82.01 56.65 81.96 56.7C81.91 56.76 81.88 56.82 81.85 56.89L76.85 67.35C76.84 67.38 76.83 67.41 76.82 67.44C76.81 67.47 76.8 67.5 76.79 67.53C76.78 67.56 76.78 67.59 76.77 67.63C76.77 67.66 76.76 67.69 76.76 67.72C76.77 67.82 76.79 67.91 76.83 68C76.87 68.09 76.93 68.17 77 68.24C77.07 68.3 77.15 68.36 77.24 68.39C77.33 68.43 77.42 68.45 77.52 68.45C77.59 68.45 77.66 68.44 77.73 68.42C77.8 68.4 77.87 68.37 77.93 68.33C77.99 68.29 78.04 68.24 78.09 68.19C78.14 68.13 78.17 68.07 78.2 68L83.2 57.46L83.2 57.49Z"></path>
                      <path  fill-rule="evenodd" class="shp2" d="M100.37 50.72C98.98 58.55 97.59 66.38 96.22 74.21C96.12 74.82 95.89 74.98 95.3 74.98C88.25 74.98 60.19 74.98 53.13 74.98C52.13 74.98 51.95 74.79 52.13 73.79C53.46 66.2 54.8 58.62 56.13 51.03C56.42 49.41 56.44 49.41 58.08 49.41L99.32 49.41C100.49 49.41 100.6 49.57 100.37 50.72ZM96.76 58.33C96.83 58.08 96.84 57.81 96.8 57.56C96.75 57.3 96.65 57.05 96.5 56.84C96.36 56.62 96.16 56.44 95.94 56.31C95.71 56.18 95.46 56.1 95.2 56.07C94.93 56.03 94.67 55.95 94.42 55.82C94.18 55.69 93.97 55.52 93.78 55.32C93.6 55.11 93.46 54.88 93.36 54.62C93.26 54.36 93.2 54.09 93.2 53.82C93 52.33 92.49 51.82 91 51.82L64.75 51.82C64.5 51.8 64.24 51.82 63.99 51.88C63.75 51.95 63.51 52.05 63.3 52.19C63.09 52.33 62.9 52.51 62.75 52.71C62.59 52.92 62.48 53.15 62.4 53.39C62.27 53.73 62.1 54.05 61.89 54.35C61.67 54.64 61.42 54.91 61.14 55.14C60.86 55.37 60.56 55.56 60.23 55.72C59.9 55.87 59.55 55.98 59.19 56.04C58.93 56.06 58.68 56.12 58.45 56.23C58.21 56.34 58 56.49 57.82 56.67C57.64 56.85 57.49 57.06 57.38 57.3C57.27 57.53 57.21 57.78 57.19 58.04C56.72 60.65 56.26 63.26 55.81 65.87C55.53 67.5 55.91 68.07 57.53 68.5C57.77 68.55 57.99 68.64 58.2 68.76C58.41 68.88 58.6 69.03 58.76 69.21C58.92 69.39 59.05 69.59 59.15 69.81C59.25 70.03 59.31 70.26 59.34 70.5C59.49 72.18 60.02 72.66 61.72 72.66L87.78 72.66C88.01 72.68 88.25 72.67 88.47 72.62C88.7 72.57 88.92 72.48 89.12 72.36C89.32 72.24 89.5 72.09 89.65 71.91C89.8 71.73 89.92 71.53 90 71.31C90.13 70.93 90.32 70.57 90.55 70.24C90.78 69.91 91.05 69.61 91.36 69.35C91.67 69.1 92.02 68.88 92.38 68.72C92.75 68.55 93.14 68.44 93.54 68.38C93.76 68.35 93.98 68.29 94.18 68.19C94.38 68.09 94.56 67.96 94.71 67.8C94.87 67.64 95 67.46 95.1 67.26C95.19 67.06 95.25 66.84 95.28 66.62C95.76 63.86 96.28 61.09 96.76 58.33Z"></path>
                      <path  class="shp2" d="M91 51.73L91 51.73Z"></path>
                    </svg>