<svg xmlns="http://www.w3.org/2000/svg" fill="currentColor" viewBox="0 0 134 134" stroke-width="1">
    <path d="M63.8,62.1v30.6c0,.87.47,1.3,1.4,1.3h6.8c.8,0,1.1.3,1.1,1v4.4c0,.7-.2,1.1-.9.9-1.8-.4-2.7.4-3.2,2.1-.2.8-.8,1-1.6,1h-7.1c-.9,0-1.4-.3-1.6-1v-.2c-.4-1.1-1-1.9-2.4-2.2-2-.5-3.1-2.3-3.2-4.4,0-1.7.2-3.3-.2-5s-1.2-3.2-2.4-4.5l-9-9c-5.8-5.9-8.5-12.9-8.2-21.2.5-12.6,10.5-23.6,23-25.6,2.2-.3,4.4-.3,6.6-.4.9,0,1.1.3,1.1,1.1v30.9l-.2.2ZM39.5,57.6c0,1.1,0,2.1.2,3.1.7,4.4,2.5,8.1,5.5,11.4.3.3.5.4.9,0l1.8-1.8c.9-1,1-.6,0-1.9-4.4-5.5-5.2-11.6-2.4-18,1.6-3.6,4.3-6.2,7.8-8,.7-.3.8-.6.5-1.3s-.6-1.4-.9-2.1c-.4-1.1-.5-1.1-1.4-.6-7.7,4-11.7,10.5-12,19.1v.1Z"></path>
    <path d="M68.2,82v-6.5q0-1.2,1.2-1.2c4.2,0,7.8-1.4,10.6-4.5,3.7-4.2,4.5-9.1,2.4-14.2-2-5.1-6-7.8-11.5-8.4-.6,0-1.2-.1-1.8-.1-.8,0-1-.3-1-1v-14.9c0-.8.3-1.1,1-1h2.9c.6,0,.9.2,1,.8.3,1.7.7,3.3,1,5,.1.6.3.8.9.9.5,0,1.1.2,1.5.4,1.1.6,1.8.2,2.5-.7.9-1.1,1.9-2.1,2.8-3.2.4-.4.7-.5,1.1-.2,1.4.8,2.7,1.6,4.1,2.4.6.3.6.7.4,1.3-.6,1.5-1,3.1-1.6,4.6-.2.5-.2.9.3,1.3.5.4.9.8,1.3,1.3.6.9,1.3.9,2.3.5,1.3-.5,2.7-.9,4-1.4.6-.2,1-.1,1.3.5.8,1.4,1.6,2.7,2.4,4.1.3.5.2.7-.2,1.1-1.3,1.1-2.6,2.3-4,3.5-.4.3-.5.6-.3,1.1.2.6.5,1.2.5,1.8.1,1.1.7,1.5,1.7,1.6,1.5.2,2.9.6,4.4.9.6.1.7.4.7.9v4.7c0,.6-.3.8-.8.9-1.6.3-3.2.7-4.8.9-.6.1-1,.3-1.1,1,0,.6-.2,1.1-.4,1.6-.5,1-.1,1.6.7,2.2,1.1.9,2.2,1.9,3.3,2.9.5.4.5.7.2,1.3-.8,1.3-1.6,2.7-2.3,4-.3.5-.6.6-1.2.4-1.5-.6-3.1-1-4.6-1.6-.6-.2-1.1-.2-1.5.4-.3.4-.7.9-1.1,1.1-1,.7-1,1.4-.6,2.4.5,1.3.9,2.7,1.4,4.1.2.5.1.9-.4,1.2-1.4.8-2.7,1.6-4.1,2.4-.5.3-.8.2-1.1-.2-1.1-1.3-2.3-2.5-3.4-3.8-.4-.5-.7-.6-1.3-.4-.4.2-.8.3-1.2.3-1.5,0-2.1.9-2.2,2.3,0,.7-.3,1.5-.4,2.2,0,.6-.4.9-1,.9h-3.3c-.7,0-.9-.3-.9-.9v-6.8l.2-.2Z"></path>
    <path d="M68.2,60.6v-6.5c0-.9.3-1.2,1.2-1.2,4.8,0,8.3,3.3,8.2,7.9,0,4.2-3.5,7.9-8.7,7.6-.6,0-.7-.5-.7-.9v-6.9h0Z"></path>
</svg>