<svg xmlns="http://www.w3.org/2000/svg" fill="currentColor" viewBox="0 0 134 134" stroke-width="1">
    <path fill-rule="evenodd" d="M87.11 78.29C87.41 78.81 87.73 79.32 88.07 79.82C88.41 80.32 88.77 80.81 89.15 81.28C89.53 81.75 89.92 82.21 90.33 82.65C90.75 83.09 91.18 83.51 91.62 83.92C91.9 84.18 92.1 84.53 92.17 84.91C92.24 85.29 92.18 85.68 92.01 86.03C91.84 86.38 91.56 86.66 91.22 86.83C90.87 87.01 90.48 87.07 90.1 87C89.09 86.82 88.08 86.6 87.09 86.33C86.1 86.06 85.12 85.74 84.16 85.37C83.2 85.01 82.26 84.6 81.34 84.15C80.42 83.69 79.52 83.2 78.64 82.66C78.26 83.21 77.86 83.75 77.44 84.26C77.01 84.78 76.56 85.28 76.1 85.76C75.63 86.23 75.14 86.69 74.63 87.12C74.12 87.56 73.59 87.97 73.05 88.36L69.25 90.55C68.3 90.98 67.32 91.35 66.32 91.65C65.32 91.95 64.29 92.18 63.26 92.34C62.23 92.5 61.18 92.59 60.14 92.61C59.09 92.62 58.05 92.57 57.01 92.44C56.93 92.43 56.86 92.43 56.78 92.43C56.7 92.43 56.62 92.44 56.55 92.46C56.47 92.48 56.4 92.5 56.33 92.53C56.25 92.56 56.18 92.6 56.12 92.64C55.18 93.28 54.2 93.87 53.2 94.41C52.19 94.94 51.16 95.42 50.1 95.85C49.04 96.28 47.96 96.64 46.86 96.95C45.77 97.26 44.65 97.51 43.53 97.7C43.15 97.76 42.76 97.7 42.41 97.53C42.07 97.35 41.79 97.07 41.62 96.72C41.44 96.38 41.39 95.98 41.46 95.6C41.53 95.22 41.72 94.87 42 94.61C42.44 94.21 42.87 93.79 43.28 93.35C43.69 92.92 44.09 92.46 44.46 92C44.84 91.53 45.2 91.05 45.54 90.56C45.88 90.06 46.2 89.56 46.5 89.04C46.54 88.97 46.56 88.9 46.57 88.82C46.58 88.75 46.57 88.67 46.56 88.6C46.54 88.52 46.51 88.45 46.47 88.39C46.42 88.32 46.37 88.27 46.31 88.22C42.81 85.67 40.11 82.18 38.52 78.16C36.92 74.13 36.5 69.74 37.31 65.48C38.11 61.23 40.11 57.29 43.07 54.13C46.02 50.96 49.81 48.7 54 47.61C54.46 46.78 54.97 45.99 55.53 45.23C56.09 44.47 56.71 43.75 57.37 43.07C58.03 42.39 58.73 41.76 59.48 41.18C60.22 40.6 61 40.07 61.82 39.59C62.77 39.06 64.77 38.08 65.77 37.65C80.39 31.44 96.7 42.93 96.7 59C96.7 60.8 96.49 62.58 96.07 64.33C95.65 66.08 95.03 67.77 94.21 69.37C93.4 70.97 92.4 72.46 91.24 73.83C90.07 75.2 88.75 76.42 87.3 77.48C87.24 77.52 87.18 77.58 87.14 77.64C87.09 77.7 87.06 77.77 87.05 77.85C87.03 77.92 87.02 78 87.04 78.07C87.05 78.15 87.07 78.22 87.11 78.29ZM51.68 59.51C50.96 59.51 50.24 59.65 49.57 59.93C48.91 60.2 48.3 60.61 47.79 61.12C47.28 61.63 46.87 62.24 46.59 62.9C46.31 63.57 46.17 64.29 46.17 65.01C46.14 65.39 46.27 65.77 46.52 66.05C46.78 66.33 47.14 66.49 47.52 66.49C47.91 66.49 48.27 66.33 48.53 66.05C48.78 65.77 48.91 65.39 48.88 65.01C48.92 64.3 49.24 63.63 49.76 63.14C50.27 62.65 50.96 62.38 51.67 62.38C52.39 62.38 53.08 62.65 53.59 63.14C54.11 63.63 54.43 64.3 54.47 65.01C54.44 65.39 54.57 65.77 54.82 66.05C55.08 66.33 55.44 66.49 55.83 66.49C56.21 66.49 56.57 66.33 56.83 66.05C57.08 65.77 57.21 65.39 57.18 65.01C57.18 64.29 57.04 63.57 56.76 62.91C56.48 62.24 56.08 61.63 55.57 61.12C55.06 60.61 54.45 60.21 53.78 59.93C53.12 59.65 52.4 59.51 51.68 59.51ZM71.55 75.26C71.75 74.79 71.82 74.29 71.78 73.78C71.73 73.28 71.56 72.79 71.28 72.37C71 71.95 70.62 71.6 70.17 71.36C69.72 71.13 69.23 71 68.72 71L50.24 71C49.73 71 49.22 71.12 48.77 71.36C48.32 71.61 47.94 71.96 47.66 72.38C47.38 72.81 47.21 73.3 47.16 73.81C47.11 74.32 47.2 74.83 47.4 75.3C48.4 77.68 50.08 79.71 52.23 81.13C54.38 82.56 56.9 83.32 59.47 83.32C62.05 83.32 64.57 82.56 66.72 81.13C68.87 79.71 70.55 77.68 71.55 75.3L71.55 75.26ZM79.6 81.13C80.42 81.63 81.27 82.1 82.14 82.52C83 82.94 83.89 83.33 84.79 83.66C85.7 84 86.61 84.3 87.55 84.55C88.48 84.81 89.42 85.02 90.37 85.18C89.89 84.75 89.44 84.29 89 83.82C88.56 83.35 88.13 82.87 87.73 82.36C87.33 81.86 86.94 81.35 86.58 80.81C86.22 80.28 85.87 79.74 85.55 79.18C85.4 78.92 85.3 78.64 85.25 78.34C85.21 78.05 85.21 77.75 85.28 77.46C85.34 77.17 85.45 76.89 85.62 76.64C85.78 76.39 85.99 76.17 86.23 76C87.56 75.03 88.78 73.9 89.85 72.64C90.92 71.39 91.84 70.01 92.59 68.54C93.34 67.06 93.92 65.51 94.3 63.9C94.69 62.3 94.89 60.65 94.89 59C94.87 44.34 80 33.66 66.41 39.33C66.1 39.46 65.79 39.6 65.48 39.74C65.17 39.88 64.87 40.02 64.56 40.17C64.26 40.32 63.96 40.48 63.66 40.64C63.36 40.8 63.06 40.96 62.77 41.13C62.16 41.53 61.57 41.96 60.99 42.41C60.42 42.86 59.87 43.34 59.34 43.84C58.81 44.35 58.3 44.87 57.82 45.42C57.34 45.97 56.88 46.54 56.45 47.13C60.7 46.51 65.03 47.09 68.96 48.81C72.89 50.54 76.26 53.33 78.67 56.88C81.09 60.43 82.45 64.58 82.62 68.87C82.78 73.16 81.74 77.41 79.6 81.13ZM62.35 66.04C62.61 66.32 62.97 66.48 63.36 66.48C63.74 66.48 64.1 66.32 64.36 66.04C64.61 65.76 64.74 65.38 64.71 65C64.71 64.26 65 63.55 65.53 63.03C66.05 62.5 66.76 62.21 67.5 62.21C68.24 62.21 68.95 62.5 69.47 63.03C70 63.55 70.29 64.26 70.29 65C70.26 65.38 70.39 65.76 70.64 66.04C70.9 66.32 71.26 66.48 71.65 66.48C72.03 66.48 72.39 66.32 72.65 66.04C72.9 65.76 73.03 65.38 73 65C73 63.54 72.42 62.14 71.39 61.11C70.36 60.08 68.96 59.5 67.5 59.5C66.04 59.5 64.64 60.08 63.61 61.11C62.58 62.14 62 63.54 62 65C61.97 65.38 62.1 65.76 62.35 66.04Z"></path>
</svg>