<svg xmlns="http://www.w3.org/2000/svg" fill="currentColor" viewBox="0 0 100 100" stroke-width="1">
                      <path d="M63.52 35.82L66.51 32.82C66.64 32.7 66.74 32.54 66.82 32.37C66.89 32.2 66.92 32.02 66.92 31.84C66.92 31.65 66.89 31.47 66.82 31.3C66.74 31.13 66.64 30.98 66.51 30.85C66.38 30.72 66.22 30.62 66.05 30.55C65.88 30.48 65.7 30.44 65.52 30.44C65.34 30.44 65.16 30.48 64.99 30.55C64.82 30.62 64.66 30.72 64.53 30.85L61.54 33.85C61.41 33.98 61.31 34.13 61.24 34.3C61.17 34.47 61.13 34.65 61.13 34.84C61.13 35.02 61.17 35.2 61.24 35.37C61.31 35.54 61.41 35.69 61.54 35.82C61.67 35.95 61.83 36.05 62 36.12C62.17 36.19 62.35 36.23 62.53 36.23C62.72 36.23 62.9 36.19 63.07 36.12C63.24 36.05 63.39 35.95 63.52 35.82Z"></path>
                      <path d="M70.02 42.41L67.02 42.41C66.65 42.41 66.29 42.56 66.03 42.82C65.77 43.09 65.62 43.44 65.62 43.81C65.62 44.19 65.77 44.54 66.03 44.8C66.29 45.07 66.65 45.21 67.02 45.21L70.02 45.21C70.39 45.21 70.75 45.07 71.01 44.8C71.27 44.54 71.42 44.19 71.42 43.81C71.42 43.44 71.27 43.09 71.01 42.82C70.75 42.56 70.39 42.41 70.02 42.41L70.02 42.41Z"></path>
                      <path d="M53.54 31.74C53.72 31.74 53.91 31.7 54.08 31.63C54.24 31.56 54.4 31.46 54.53 31.33C54.66 31.2 54.76 31.05 54.83 30.88C54.9 30.71 54.94 30.53 54.94 30.35L54.94 27.35C54.98 26.96 54.84 26.57 54.58 26.28C54.31 25.99 53.94 25.83 53.55 25.83C53.15 25.83 52.78 25.99 52.52 26.28C52.25 26.57 52.12 26.96 52.15 27.35L52.15 30.35C52.15 30.53 52.19 30.71 52.26 30.88C52.33 31.05 52.43 31.2 52.56 31.33C52.69 31.46 52.84 31.56 53.01 31.63C53.18 31.7 53.36 31.74 53.54 31.74L53.54 31.74Z"></path>
                      <path d="M28.6 60.79C28.47 60.92 28.37 61.08 28.3 61.25C28.23 61.42 28.2 61.6 28.2 61.78C28.2 61.96 28.23 62.14 28.3 62.31C28.37 62.48 28.47 62.64 28.6 62.77L34.59 68.81C34.72 68.94 34.87 69.04 35.04 69.11C35.21 69.18 35.4 69.22 35.58 69.22C35.77 69.22 35.95 69.18 36.12 69.11C36.29 69.04 36.44 68.94 36.57 68.81L38.91 66.47L30.94 58.5L28.6 60.79Z"></path>
                      <path d="M52.8 61.92L42.99 66.54L49.7 73.25C49.83 73.38 49.98 73.48 50.15 73.55C50.32 73.62 50.5 73.65 50.68 73.65C50.87 73.65 51.05 73.62 51.22 73.55C51.39 73.48 51.54 73.38 51.67 73.25L56.9 68.02C57.03 67.89 57.13 67.74 57.2 67.57C57.27 67.4 57.3 67.21 57.3 67.03C57.3 66.85 57.27 66.66 57.2 66.49C57.13 66.32 57.03 66.17 56.9 66.04L52.8 61.92Z"></path>
                      <path d="M47.05 30.85C46.89 30.69 46.7 30.57 46.49 30.5C46.27 30.44 46.04 30.42 45.82 30.46C45.6 30.5 45.39 30.59 45.21 30.73C45.04 30.87 44.89 31.04 44.8 31.25L32.93 56.48L40.89 64.44L66.12 52.57C66.22 52.52 66.32 52.46 66.4 52.39C66.49 52.31 66.57 52.23 66.63 52.14C66.7 52.05 66.76 51.95 66.8 51.85C66.85 51.75 66.88 51.64 66.89 51.53C66.91 51.42 66.92 51.3 66.91 51.19C66.91 51.08 66.89 50.97 66.85 50.86C66.82 50.75 66.77 50.65 66.71 50.56C66.66 50.46 66.59 50.37 66.51 50.29L47.05 30.85Z"></path>
                      <path d="M47.05 30.85C46.89 30.69 46.7 30.57 46.49 30.5C46.27 30.44 46.04 30.42 45.82 30.46C45.6 30.5 45.39 30.59 45.21 30.73C45.04 30.87 44.89 31.04 44.8 31.25L32.93 56.48L40.89 64.44L66.12 52.57C66.22 52.52 66.32 52.46 66.4 52.39C66.49 52.31 66.57 52.23 66.63 52.14C66.7 52.05 66.76 51.95 66.8 51.85C66.85 51.75 66.88 51.64 66.89 51.53C66.91 51.42 66.92 51.3 66.91 51.19C66.91 51.08 66.89 50.97 66.85 50.86C66.82 50.75 66.77 50.65 66.71 50.56C66.66 50.46 66.59 50.37 66.51 50.29L47.05 30.85Z"></path>
                    </svg>