<svg xmlns="http://www.w3.org/2000/svg" fill="currentColor" viewBox="0 0 134 134" stroke-width="1">
                      <path d="M92.45 79.25C92.03 78.99 91.52 78.92 91.04 79.05C90.56 79.17 90.16 79.49 89.92 79.92C89.68 80.36 89.63 80.87 89.78 81.34C89.93 81.81 90.27 82.2 90.71 82.42C92.87 83.61 94.11 84.92 94.11 86.03C94.11 87.38 92.19 89.48 86.81 91.31C85.19 91.8 83.56 92.23 81.91 92.59C80.26 92.96 78.59 93.26 76.92 93.49C75.25 93.73 73.56 93.9 71.88 94C70.19 94.1 68.5 94.14 66.81 94.11C65.12 94.14 63.43 94.1 61.74 94C60.06 93.9 58.37 93.73 56.7 93.49C55.03 93.26 53.36 92.96 51.71 92.6C50.06 92.23 48.43 91.8 46.81 91.31C41.43 89.48 39.51 87.38 39.51 86.03C39.51 84.92 40.75 83.61 42.9 82.42C43.34 82.2 43.68 81.81 43.83 81.34C43.98 80.87 43.93 80.36 43.69 79.92C43.45 79.49 43.05 79.17 42.57 79.05C42.09 78.92 41.58 78.99 41.16 79.25C38.76 80.57 35.9 82.82 35.9 86C35.9 88.46 37.59 92 45.65 94.71C47.36 95.23 49.09 95.69 50.84 96.08C52.58 96.47 54.34 96.79 56.11 97.04C57.88 97.29 59.66 97.47 61.45 97.59C63.23 97.7 65.02 97.74 66.81 97.71C68.6 97.74 70.39 97.7 72.17 97.59C73.96 97.48 75.74 97.29 77.51 97.04C79.28 96.79 81.05 96.47 82.79 96.08C84.54 95.69 86.27 95.24 87.98 94.71C96 92 97.73 88.49 97.73 86C97.73 82.82 94.86 80.57 92.45 79.25Z"></path>
                      <path d="M53.14 88.69C54.25 88.97 55.38 89.22 56.51 89.43C57.64 89.64 58.78 89.81 59.92 89.95C61.06 90.08 62.21 90.18 63.36 90.24C64.51 90.3 65.66 90.32 66.81 90.3C67.96 90.32 69.11 90.3 70.26 90.24C71.41 90.18 72.56 90.08 73.7 89.95C74.85 89.81 75.99 89.64 77.12 89.43C78.25 89.22 79.37 88.97 80.49 88.69C84.99 87.42 87.27 85.58 87.27 83.22C87.27 80.86 85 79 80.49 77.75C79.49 77.47 78.4 77.22 77.25 77.01L75.25 80.36C75.55 80.4 75.85 80.45 76.15 80.5C76.45 80.55 76.75 80.61 77.04 80.66C77.34 80.72 77.64 80.78 77.93 80.85C78.23 80.92 78.53 80.99 78.82 81.06C82.13 81.9 83.34 82.85 83.59 83.22C83.34 83.58 82.13 84.53 78.82 85.38C77.88 85.6 76.94 85.78 76 85.95C75.05 86.11 74.1 86.24 73.15 86.35C72.19 86.46 71.24 86.54 70.28 86.59C69.32 86.65 68.36 86.67 67.4 86.67C67.2 86.67 66.99 86.67 66.78 86.67C66.57 86.67 66.37 86.67 66.16 86.67C65.2 86.67 64.24 86.65 63.28 86.6C62.33 86.54 61.37 86.46 60.42 86.35C59.46 86.25 58.51 86.11 57.57 85.95C56.62 85.79 55.68 85.6 54.75 85.38C51.44 84.53 50.23 83.58 49.98 83.22C50.23 82.85 51.44 81.9 54.75 81.06C55.04 80.99 55.34 80.92 55.64 80.85C55.93 80.78 56.23 80.72 56.53 80.66C56.82 80.61 57.12 80.55 57.42 80.5C57.72 80.45 58.02 80.4 58.32 80.36C57.63 79.21 56.97 78.09 56.32 77.01C55.16 77.22 54.07 77.47 53.08 77.75C48.58 79.02 46.3 80.86 46.3 83.22C46.3 85.58 48.64 87.42 53.14 88.69Z"></path>
                      <path fill-rule="evenodd" d="M66.81 83.07C66.42 83.07 66.03 83.02 65.65 82.92C65.27 82.83 64.9 82.68 64.56 82.49C64.22 82.29 63.9 82.06 63.62 81.79C63.34 81.51 63.09 81.21 62.89 80.87C56.97 71.23 49.97 58.52 49.97 52.74C49.97 48.27 51.74 43.99 54.9 40.83C58.06 37.67 62.34 35.9 66.81 35.9C71.28 35.9 75.56 37.67 78.72 40.83C81.88 43.99 83.65 48.27 83.65 52.74C83.65 58.52 76.63 71.23 70.73 80.87C70.53 81.21 70.28 81.51 70 81.79C69.72 82.06 69.4 82.29 69.06 82.49C68.72 82.68 68.35 82.83 67.97 82.92C67.59 83.02 67.2 83.07 66.81 83.07ZM60.52 54.17C60.86 54.99 61.36 55.74 61.99 56.36C62.61 56.99 63.36 57.49 64.18 57.83C65 58.17 65.88 58.35 66.77 58.35C69.51 58.35 71.98 56.7 73.02 54.17C74.07 51.64 73.49 48.73 71.56 46.79C69.62 44.86 66.71 44.28 64.18 45.33C61.65 46.37 60 48.84 60 51.58C60 52.47 60.18 53.35 60.52 54.17Z"></path>
                    </svg>