<svg xmlns="http://www.w3.org/2000/svg" fill="currentColor" viewBox="0 0 100 100" stroke-width="1">
                      <path d="M46.66 40.35L46.66 37.2L27.75 37.2C27.34 37.2 26.93 37.28 26.54 37.44C26.16 37.6 25.81 37.83 25.52 38.12C25.23 38.41 24.99 38.76 24.83 39.14C24.67 39.53 24.59 39.94 24.59 40.35L24.59 46.66L47.33 46.66C47.22 46.14 47.11 45.62 47.03 45.1C46.94 44.58 46.87 44.05 46.82 43.52C46.76 43 46.72 42.47 46.69 41.94C46.67 41.41 46.66 40.88 46.66 40.35L46.66 40.35Z"></path>
                      <path fill-rule="evenodd" d="M75 53L75 68.73C75 69.14 74.92 69.55 74.76 69.93C74.61 70.31 74.38 70.65 74.09 70.95C73.8 71.24 73.45 71.47 73.08 71.63C72.7 71.79 72.29 71.88 71.88 71.88L27.75 71.88C27.34 71.88 26.93 71.8 26.54 71.64C26.16 71.48 25.81 71.25 25.52 70.96C25.23 70.67 24.99 70.32 24.83 69.94C24.67 69.55 24.59 69.14 24.59 68.73L24.59 52.99L49.95 52.99C52.08 56.3 55.38 59.13 60.08 61.83C60.44 62.03 60.82 62.19 61.21 62.3C61.61 62.4 62.02 62.46 62.43 62.46C62.84 62.46 63.25 62.4 63.65 62.3C64.04 62.19 64.42 62.03 64.78 61.83C69.47 59.14 72.75 56.32 74.9 53L75 53ZM39.98 62.01C40.3 61.71 40.49 61.29 40.49 60.84C40.49 60.4 40.3 59.98 39.98 59.68C39.65 59.39 39.22 59.23 38.78 59.27L32.47 59.27C32.07 59.3 31.7 59.48 31.43 59.77C31.17 60.06 31.02 60.45 31.02 60.84C31.02 61.24 31.17 61.63 31.43 61.92C31.7 62.21 32.07 62.39 32.47 62.42L38.78 62.42C39.22 62.46 39.65 62.3 39.98 62.01Z"></path>
                      <path fill-rule="evenodd" d="M74.46 32.84C74.58 32.94 74.67 33.06 74.76 33.19C74.84 33.32 74.9 33.46 74.94 33.6C74.98 33.75 75 33.9 75 34.05L75 40.35C75 49 71.82 54.11 63.21 59.06C63.15 59.09 63.09 59.12 63.02 59.15C62.96 59.18 62.9 59.2 62.83 59.22C62.76 59.23 62.69 59.25 62.63 59.26C62.56 59.27 62.49 59.27 62.42 59.27C62.35 59.27 62.28 59.27 62.22 59.26C62.15 59.25 62.08 59.23 62.02 59.22C61.95 59.2 61.89 59.18 61.82 59.15C61.76 59.12 61.7 59.09 61.64 59.06C53 54.1 49.81 49 49.76 40.35L49.76 34.05C49.76 33.89 49.79 33.74 49.84 33.59C49.88 33.44 49.95 33.3 50.04 33.17C50.13 33.05 50.24 32.93 50.36 32.83C50.48 32.74 50.62 32.66 50.76 32.6L61.76 27.87C61.86 27.83 61.96 27.8 62.06 27.77C62.17 27.75 62.27 27.74 62.38 27.74C62.49 27.74 62.59 27.75 62.7 27.77C62.8 27.8 62.9 27.83 63 27.87L74.08 32.6C74.22 32.66 74.35 32.75 74.46 32.84ZM68.46 39.8C68.72 39.47 68.84 39.05 68.8 38.64C68.76 38.22 68.55 37.84 68.23 37.57C67.9 37.31 67.48 37.19 67.07 37.23C66.65 37.27 66.27 37.48 66 37.8L61 44L59 41.06C58.78 40.68 58.42 40.4 57.99 40.3C57.56 40.2 57.11 40.28 56.75 40.52C56.38 40.76 56.13 41.15 56.06 41.59C55.99 42.02 56.11 42.46 56.38 42.81L59.53 47.54C59.6 47.64 59.68 47.73 59.77 47.82C59.87 47.9 59.97 47.97 60.07 48.03C60.18 48.09 60.3 48.14 60.42 48.18C60.53 48.21 60.66 48.23 60.78 48.24L60.85 48.24C60.97 48.24 61.08 48.23 61.2 48.2C61.31 48.17 61.43 48.13 61.53 48.08C61.64 48.03 61.74 47.97 61.83 47.9C61.92 47.82 62.01 47.74 62.08 47.65L68.38 39.77L68.46 39.8Z"></path>
                    </svg>