<svg xmlns="http://www.w3.org/2000/svg" fill="currentColor"  viewBox="0 0 130 130" stroke-width="1">
    <path d="M91.1,69.8c-1.7,0.3-3.9,2.2-5,5.3c-0.1,0.4-0.4,0.7-0.8,0.9l-6.9,3.3c0.1,0.5,0.2,1,0.2,1.6 c0,3.2-2,5.4-4.9,5.4H59.9c-0.8,0-1.5-0.7-1.5-1.5s0.7-1.5,1.5-1.5h13.8c1.7,0,1.9-1.7,1.9-2.4c0-0.6-0.1-2.5-1.9-2.5h-7.9 c-1.3,0-2.5-0.7-3.8-1.4c-1-0.6-2.2-1.2-3-1.2h-7.7c-2.6,0-5.2,2.4-6.6,3.7c-1.1,1.1-2.8,2.8-4.2,4.3L50.7,94 c1.3-0.9,2.6-1.4,4-1.4h15.8c2.3,0,4.3-0.7,5.6-2.1L88.5,78c0.3-0.3,0.6-0.7,0.7-1.1l2.5-6.3C91.7,70.7,92.1,69.6,91.1,69.8z"></path>
    <path d="M51.3,72.8H59c1.5,0,3.1,0.8,4.4,1.6c0.8,0.5,1.9,1,2.3,1h7.9c1.3,0,2.4,0.5,3.3,1.3l6.5-3.1 c0.6-1.5,1.4-2.8,2.4-3.9c0.2-1.2,0.4-2.5,0.4-3.8c0-2.5-0.2-4.4-0.5-5.7c-1.1-4.8-3.5-9.8-14-16.2c-1-0.6-2-1-3.1-1.2 c1.7-2.4,4.7-7.6,5.5-8.7c0.4-0.5,0.4-0.6,0.2-0.9c-0.3-0.3-0.9-0.3-1.5-0.1c-1.3,0.4-2.8,0-4.5-0.5c-3.5-1-8.5-2.4-10.5,1.3 c-0.2,0.4-0.1,0.1,0.3,0.5c0.8,0.9,3.8,6.2,5.4,8.5c-0.6,0.2-1.2,0.4-1.7,0.6c-10.9,5.8-13.3,11.8-14.4,16.6 c-0.3,1.3-0.7,3.4-0.7,5.7c0,2.7,0.5,5.2,1.4,7.5C49.1,73,50.1,72.8,51.3,72.8z M61,57.1c0-2.3,1.9-4.1,4.1-4.1h2.6 c2.2,0,4,1.8,4.1,4c0,0.7-0.4,1.4-1.1,1.6c-1,0.2-1.9-0.5-1.9-1.4c0-0.6-0.4-1.1-1.1-1.1h-2.7c-0.6,0-1.1,0.5-1.1,1.1v0.7 c0,0.5,0.3,0.9,0.8,1.1l4.3,1.4c1.7,0.6,2.8,2.1,2.8,3.9V65c0,2.3-1.9,4.1-4.1,4.1h-2.6c-2.2,0-4-1.8-4.1-4c0-0.7,0.4-1.4,1.1-1.6 c1-0.2,1.9,0.5,1.9,1.4c0,0.6,0.4,1.1,1.1,1.1h2.7c0.6,0,1.1-0.5,1.1-1.1v-0.7c0-0.5-0.3-0.9-0.8-1.1l-4.3-1.4 c-1.7-0.6-2.8-2.1-2.8-3.9V57.1z"></path>
    <path d="M35.9,83.2c-0.6-0.6-1.6-0.6-2.2,0L28,89c-0.6,0.6-0.6,1.6,0,2.2l15,15c0.6,0.6,1.6,0.6,2.2,0l5.7-5.7 c0.6-0.6,0.6-1.6,0-2.2L35.9,83.2z M34.8,90.9c-1,0-1.9-0.8-1.9-1.9c0-1,0.8-1.9,1.9-1.9c1,0,1.9,0.8,1.9,1.9 C36.7,90,35.8,90.9,34.8,90.9z"></path>
</svg>