<svg xmlns="http://www.w3.org/2000/svg" fill="currentColor" viewBox="0 0 134 134" stroke-width="1">
                        <path d="M61.7,103.8c-1.2-.5-1.5-1.6-1.6-2.8-.3-4.4-.7-8.7-1-13.1-.1-1.8-.3-3.5-.4-5.3,0-.5-.2-.8-.8-.8-1.3,0-2.6,0-4,0-1.4,0-2.3-.9-2.3-2.3,0-4.4,0-8.7,0-13.1,0-6.2,4-11.9,9.8-14,.8-.3,1.6-.6,2.4-.7.8-.2.9-.1.9.7,0,4.5,0,9,0,13.5,0,1.7.8,2.8,2.2,2.8,1.3,0,2.1-1.1,2.1-2.8,0-4.5,0-9,0-13.4,0-.9,0-1,.9-.8,6.9,1.3,12.1,7.6,12.2,14.7,0,4.3,0,8.7,0,13,0,1.6-.9,2.5-2.4,2.5-1.3,0-2.6,0-3.8,0-.6,0-.8.2-.8.8-.3,3.7-.6,7.4-.9,11.2-.2,2.6-.5,5.1-.6,7.7,0,1.1-.6,1.9-1.6,2.3h-10.1Z"></path>
                        <path d="M85.7,103.8c-1.1-.5-1.5-1.4-1.6-2.5-.2-2.6-.5-5.1-.8-7.7-.2-2.2-.4-4.5-.7-6.7,0-.7,0-1.2.7-1.6,2-1.3,3-3.2,3-5.6,0-4.2,0-8.4,0-12.6,0-2.9-.6-5.7-1.9-8.3-.4-.8-.4-.8.5-1.3,1.3-.7,2.7-1.1,4.2-1.4-2.4-.6-4.3-1.8-5.6-3.9-1.3-2.1-1.7-4.3-1.2-6.7.9-4,4.6-7.1,9.2-6.8,3.9.2,7.4,3.4,8,7.5.6,4.1-1.8,8.5-7,9.8.8.2,1.5.3,2.3.6,5.5,1.8,9.1,6.7,9.1,12.5,0,3.5,0,7,0,10.6,0,1.7-.8,2.5-2.5,2.5-1.9,0-1.9,0-2.1,1.9-.4,3.2-.7,6.4-1,9.6-.3,2.6-.5,5.1-.8,7.7-.1,1.1-.5,2-1.6,2.5h-10.1Z"></path>
                        <path d="M29.8,67.3c.4-1.7.9-3.4,1.8-4.9,2.1-3.4,5.1-5.5,9.1-6.2,0,0,.2,0,.3,0,0,0,0,0,.1,0-5.5-1.4-7.6-6.3-6.8-10.3.8-4,4.4-7.3,9.3-7.1,3.9.2,7.5,3.5,8,7.6.6,4.4-2.1,8.6-7.1,9.8.7.2,1.2.3,1.7.4,1,.3,2,.7,2.9,1.2.4.2.5.5.3.9-1.6,3.1-2.1,6.5-2.1,9.9,0,3.6,0,7.2,0,10.8,0,2.7.9,4.9,3.4,6.3.4.3.4.6.4,1-.2,2.1-.4,4.1-.6,6.2-.3,2.7-.6,5.5-.8,8.2-.1,1.2-.4,2.3-1.6,2.9h-10.1c-1.1-.5-1.5-1.5-1.6-2.6-.6-5.8-1.2-11.6-1.7-17.4-.2-1.6-.2-1.7-1.8-1.6-1.3,0-2.2-.3-2.8-1.5v-13.4Z"></path>
                        <path d="M77.7,40.6c0,6.1-4.8,10.9-10.9,10.9-6,0-10.9-4.8-10.9-10.9,0-6.1,4.8-10.9,10.9-10.9,6.1,0,10.9,4.8,10.9,10.9Z"></path>
                    </svg>